<svg xmlns="http://www.w3.org/2000/svg" viewBox="0 0 64.968 65.817"><path d="M6.819 27.836a2 2 0 1 1-2-2 2 2 0 0 1 2 2zm55 0a2 2 0 1 1-2-2 2 2 0 0 1 2 2zM51.526 45.358l1.883-4.832a4.985 4.985 0 0 1 2.344-2.919 3.194 3.194 0 0 1 2.63-.017l.029.011a3.335 3.335 0 0 1 2.2 3.279l4.357-1.109-1.269 3.256-3.763.9-.489 1.255 2.962 1.155-1.1 2.832zm6.532-2.884c.369-.949.145-1.693-.568-1.971l-.029-.01c-.782-.306-1.406.14-1.77 1.075l-.728 1.868 2.361.921zM43.511 58.881l-.017-.023a5.926 5.926 0 0 1 9.624-6.851l.016.025a5.925 5.925 0 0 1-9.623 6.849zm7.1-5.023l-.017-.024a2.764 2.764 0 0 0-3.928-.693 2.733 2.733 0 0 0-.654 3.9l.017.024a2.788 2.788 0 0 0 3.941.684 2.727 2.727 0 0 0 .637-3.891zm-23.149 1.46l2.832-.033 4.573 5.5-.067-5.553 3.006-.035.121 10.5-2.647.031-4.762-5.7.066 5.76-3.006.035zm-15.4-2.76l.016-.025a5.632 5.632 0 0 1 7.959-1.228 5.583 5.583 0 0 1 1.844 7.795l-.015.026a5.634 5.634 0 0 1-7.959 1.228 5.582 5.582 0 0 1-1.854-7.796zm7.21 4.851l.017-.024a2.764 2.764 0 0 0-.744-3.919 2.729 2.729 0 0 0-3.877.773l-.018.024a2.786 2.786 0 0 0 .75 3.927 2.728 2.728 0 0 0 3.863-.781zM9.736 36.642l1.139 2.818-3.644 1.472 1.461 3.617 3.645-1.472 1.138 2.816-9.736 3.936L2.6 47.011l3.7-1.5L4.839 41.9l-3.7 1.5L0 40.578zM54.37 8.535l5.722 6.706-1.872 1.6-3.772-4.42-1.221 1.041 3.415 4-1.742 1.489-3.415-4-1.266 1.081 3.822 4.479-1.885 1.605-5.772-6.765zM35.866 0l3.248.945.533 7.078 4.265-5.68 3.189.929-7.23 8.911-2.707-.789zM19.081 8.528l-.008-.028a5.638 5.638 0 0 1 4.3-6.811A5.578 5.578 0 0 1 30.469 5.4l.008.028a5.637 5.637 0 0 1-4.3 6.811 5.58 5.58 0 0 1-7.096-3.711zm8.394-2.257l-.008-.03a2.8 2.8 0 1 0-5.406 1.424l.007.029A2.782 2.782 0 0 0 25.525 9.7a2.73 2.73 0 0 0 1.95-3.429zM4.8 15.142L6.732 12.8l6.13 5.067 3.383-4.092 1.966 1.625-5.318 6.435zm31.723 24a8.081 8.081 0 0 1-5.123 1.865c-3.349 0-5.874-1.868-5.874-4.836v-.048c0-2.131 1.2-3.639 3.4-4.6a5.446 5.446 0 0 1-1.226-3.348v-.048c0-2.3 1.925-4.406 5.3-4.406 2.973 0 4.924 1.868 4.924 4.214v.048c0 2.25-1.5 3.567-3.675 4.381l2.325 2.227a35.594 35.594 0 0 0 1.7-2.873l2.818 1.482a30.565 30.565 0 0 1-2.3 3.543l2.575 2.466-2.823 1.891zm-2.149-2.106l-3.354-3.26a2.5 2.5 0 0 0-1.625 2.2v.048c0 1.173 1.026 1.963 2.449 1.963a4.253 4.253 0 0 0 2.525-.954zm.2-8.835v-.051a1.511 1.511 0 0 0-1.649-1.556 1.611 1.611 0 0 0-1.7 1.7v.048a2.937 2.937 0 0 0 1.025 2.083c1.519-.551 2.319-1.173 2.319-2.225z" fill="#ccc9b8" fill-rule="evenodd"/></svg>
