<svg xmlns="http://www.w3.org/2000/svg" viewBox="0 0 42.872 42.872"><title>Asset 1</title><g id="Layer_2" data-name="Layer 2"><g id="Layer_1-2" data-name="Layer 1"><path d="M21.436,0A21.436,21.436,0,1,0,42.872,21.436h0A21.436,21.436,0,0,0,21.436,0Zm0,41.8A20.364,20.364,0,1,1,41.8,21.436h0A20.388,20.388,0,0,1,21.436,41.8Z" fill="#ccc8b7"/><path d="M27.1,19.319a1.165,1.165,0,0,1-1.274-1.35l.065-3.833-1-.026.039-.218,1.724-1.441.154.039L26.8,13.622h1.9l-.154.488H26.786l-.09,3.73a.784.784,0,0,0,.652.9.758.758,0,0,0,.223,0,1.787,1.787,0,0,0,1.093-.45l.077.129A2.528,2.528,0,0,1,27.1,19.319Zm-4.828,0a4.588,4.588,0,0,1-1.647-.3l-.115-1.556h.218l.27.746a1.581,1.581,0,0,0,1.364.888,1.168,1.168,0,0,0,1.281-1.041c0-.026,0-.052,0-.078,0-.708-.579-1.029-1.428-1.312-.772-.27-1.569-.643-1.569-1.634a1.7,1.7,0,0,1,1.783-1.613c.027,0,.055,0,.082.006a3.166,3.166,0,0,1,1.158.218l.411-.128.077,1.543h-.218l-.528-1.08a1.548,1.548,0,0,0-.939-.335c-.694,0-1.106.386-1.106.965,0,.682.553.913,1.351,1.2.861.309,1.685.656,1.685,1.736a1.91,1.91,0,0,1-2.027,1.785C22.344,19.327,22.308,19.323,22.272,19.319Zm-9.209-.18.038-.193.553-.051c.373-.039.528-.1.528-.193V11.5c0-.09-.065-.115-.592-.167l-.476-.038-.038-.193h5.993l.167,2.289h-.205l-.129-.527c-.373-1.068-.7-1.544-2.405-1.544H15.2v3.537l.887-.013c1.158-.025,1.389-.141,1.582-.8l.129-.373.18.013-.257,2.6-.18-.013-.026-.36c-.052-.708-.245-.785-1.492-.823l-.823-.013v3.794l1.4.039c1.916-.013,2.315-.7,2.7-1.647l.154-.5.219.013-.438,2.366Z" fill="#231f20"/><path d="M28.917,23.043a2.567,2.567,0,0,0-2.5,2.63l0,.07a2.222,2.222,0,0,0,2.035,2.394c.033,0,.065,0,.1.006a2.739,2.739,0,0,0,1.964-.99l.024.013a5.178,5.178,0,0,1-4.061,4.216l.049.18a5.574,5.574,0,0,0,5.007-5.374C31.536,24.42,30.481,23.043,28.917,23.043Zm.085,4.6c-.994,0-1.733-.965-1.733-2.237,0-1.3.63-2.16,1.575-2.16,1.14,0,1.818,1.325,1.818,2.842a3.858,3.858,0,0,1-.084.809A2.109,2.109,0,0,1,29,27.646Zm-5.714-4.6c-1.58,0-2.71,1.938-2.71,4.341,0,2.429,1.13,4.234,2.662,4.234,1.652,0,2.7-1.832,2.7-4.314C25.937,24.888,24.8,23.043,23.288,23.043Zm.012,8.349c-1.118,0-1.782-1.287-1.782-4.261,0-2.508.724-3.849,1.711-3.849,1.092,0,1.77,1.341,1.77,4.208C25,30.065,24.3,31.392,23.3,31.392ZM18.382,27.01v-.026a2.307,2.307,0,0,0,1.552-1.872,2.063,2.063,0,0,0-2.058-2.07c-.027,0-.055,0-.083,0a2.267,2.267,0,0,0-2.226,2.239c0,1,.7,1.558,1.588,2.055v.027a2.362,2.362,0,0,0-1.828,2.095,2.244,2.244,0,0,0,2.326,2.161l.047,0a2.38,2.38,0,0,0,2.45-2.306V29.3C20.15,28.136,19.356,27.547,18.382,27.01ZM16.265,24.8a1.426,1.426,0,0,1,1.3-1.541l.058,0a1.736,1.736,0,0,1,1.54,1.9,2.128,2.128,0,0,1-.939,1.768C17.155,26.4,16.265,25.858,16.265,24.8Zm1.6,6.6A1.786,1.786,0,0,1,16.1,29.594c0-.048,0-.1.008-.144a2.229,2.229,0,0,1,1.214-1.99c1.084.522,2.154,1.125,2.154,2.3a1.543,1.543,0,0,1-1.612,1.64ZM11.5,31.213l.759-.077c.378-.038.51-.1.51-.229l-.014-6.894-1.5-.153.039-.151,2.418-.344V30.92c0,.114.079.191.615.216l.64.077.039.19H11.463Z" fill="#231f20" fill-rule="evenodd"/></g></g></svg>