<svg xmlns="http://www.w3.org/2000/svg" viewBox="0 0 22.548 16.95"><g fill="#ccc9b8"><path d="M16.434 8.851H2.715a.375.375 0 0 1 0-.75h13.719a.375.375 0 0 1 0 .75z"/><path d="M1.4 9.875a1.4 1.4 0 1 1 1.4-1.4 1.4 1.4 0 0 1-1.4 1.4zm0-2.049a.65.65 0 1 0 .65.65.65.65 0 0 0-.65-.65zM21.148 2.8a1.4 1.4 0 1 1 1.4-1.4 1.4 1.4 0 0 1-1.4 1.4zm0-2.049a.65.65 0 1 0 .65.649.65.65 0 0 0-.65-.65zm0 16.199a1.4 1.4 0 1 1 1.4-1.4 1.4 1.4 0 0 1-1.4 1.4zm0-2.048a.649.649 0 1 0 .65.649.65.65 0 0 0-.65-.651zm-4.714-4.008a.382.382 0 0 1-.144-.029.375.375 0 0 1-.231-.346V6.433a.376.376 0 0 1 .231-.347.38.38 0 0 1 .409.081l2.043 2.043a.377.377 0 0 1 0 .531L16.7 10.784a.379.379 0 0 1-.266.11zm.375-3.556v2.275l1.137-1.137z"/><path d="M9.5 7.594a.369.369 0 0 1-.186-.05.374.374 0 0 1-.139-.512l.991-1.732a.375.375 0 1 1 .65.373l-.994 1.732a.374.374 0 0 1-.322.189zm1.988-3.471a.369.369 0 0 1-.186-.05.374.374 0 0 1-.139-.511l.994-1.737a.375.375 0 0 1 .651.373l-.994 1.737a.375.375 0 0 1-.329.188zm8.639-2.349h-2a.375.375 0 0 1 0-.75h2a.375.375 0 0 1 0 .75zm-4 0h-2a.375.375 0 0 1 0-.75h2a.375.375 0 0 1 0 .75zm3.666 14.152h-2a.375.375 0 0 1 0-.75h2a.375.375 0 0 1 0 .75zm-4 0h-2a.375.375 0 0 1 0-.75h2a.375.375 0 0 1 0 .75zm-3.645-.613a.375.375 0 0 1-.325-.188l-.994-1.735a.375.375 0 1 1 .65-.373l1 1.735a.375.375 0 0 1-.139.512.371.371 0 0 1-.192.049zm-1.988-3.471a.374.374 0 0 1-.325-.189l-.994-1.735a.375.375 0 1 1 .65-.373l.994 1.735a.375.375 0 0 1-.325.562z"/></g></svg>
