<svg width="80" height="80" viewBox="0 0 80 80" fill="none" xmlns="http://www.w3.org/2000/svg"><path fill-rule="evenodd" clip-rule="evenodd" d="M36.7 52.8C38.3667 51.0667 39.2 48.9 39.2 46.3C39.2 43.9667 38.35 42.05 36.65 40.55C34.95 39.05 33 38.3 30.8 38.3C30.1333 38.3 29.3167 38.5167 28.35 38.95C27.3833 39.3833 26.6667 39.6 26.2 39.6C25.8667 39.6 25.6167 39.4333 25.45 39.1C25.2833 38.7667 25.2 38.2667 25.2 37.6C25.2 34.6667 26.5333 32.0667 29.2 29.8C31.8667 27.5333 34.8 26.4 38 26.4L37.8 25C32.6 25 28.1667 26.7666 24.5 30.3C20.8333 33.8334 19 38.0666 19 43C19 46.4 20.05 49.3167 22.15 51.75C24.25 54.1833 26.9333 55.4 30.2 55.4C32.8667 55.4 35.0333 54.5333 36.7 52.8ZM59.5 52.8C61.1667 51.0667 62 48.9 62 46.3C62 43.9667 61.15 42.05 59.45 40.55C57.75 39.05 55.8 38.3 53.6 38.3C52.9333 38.3 52.1167 38.5167 51.15 38.95C50.1833 39.3833 49.4667 39.6 49 39.6C48.6667 39.6 48.4167 39.4333 48.25 39.1C48.0833 38.7667 48 38.2667 48 37.6C48 34.6667 49.3333 32.0667 52 29.8C54.6667 27.5333 57.6 26.4 60.8 26.4L60.6 25C55.4 25 50.9667 26.7666 47.3 30.3C43.6333 33.8334 41.8 38.0666 41.8 43C41.8 46.4 42.85 49.3167 44.95 51.75C47.05 54.1833 49.7333 55.4 53 55.4C55.6667 55.4 57.8333 54.5333 59.5 52.8Z" fill="#CCC9B8"/><path d="M79.5 40C79.5 61.8152 61.8152 79.5 40 79.5C18.1848 79.5 0.5 61.8152 0.5 40C0.5 18.1848 18.1848 0.5 40 0.5C61.8152 0.5 79.5 18.1848 79.5 40Z" stroke="#CCC9B8"/></svg>
