<svg xmlns="http://www.w3.org/2000/svg" viewBox="0 0 40.265 42.844"><path d="M19.207 37.562A15.954 15.954 0 1 1 35.16 21.609a15.971 15.971 0 0 1-15.953 15.953m0 2.5A18.455 18.455 0 1 0 .752 21.609a18.456 18.456 0 0 0 18.455 18.455z" fill="#fff"/><path d="M19.207 40.564a18.955 18.955 0 1 1 18.955-18.955 18.976 18.976 0 0 1-18.955 18.955zm0-36.91a17.955 17.955 0 1 0 17.955 17.955A17.976 17.976 0 0 0 19.207 3.654zm0 34.408a16.453 16.453 0 1 1 16.454-16.453 16.472 16.472 0 0 1-16.454 16.453zm0-31.906a15.453 15.453 0 1 0 15.454 15.453A15.471 15.471 0 0 0 19.207 6.156z" fill="#c42032"/><path d="M30.315 35.332c-3.4 0-9.541-3.69-15.341-9.49C7.767 18.635 3.819 10.9 6.157 8.559A2.646 2.646 0 0 1 8.1 7.886c3.4 0 9.541 3.689 15.341 9.49 7.206 7.207 11.159 14.944 8.816 17.282a2.643 2.643 0 0 1-1.942.674m0 1.876a4.444 4.444 0 0 0 3.268-1.223c1.24-1.24 2.162-3.807-.484-9a45.931 45.931 0 0 0-8.332-10.941C18.668 9.951 12.126 6.01 8.1 6.01a4.444 4.444 0 0 0-3.269 1.223c-1.24 1.24-2.162 3.806.484 8.994a45.915 45.915 0 0 0 8.332 10.942c6.1 6.1 12.641 10.038 16.668 10.039z" fill="#fff"/><path d="M30.315 37.708c-4.153 0-10.835-4-17.022-10.186A46.447 46.447 0 0 1 4.87 16.455C2.086 11 3.12 8.236 4.477 6.879A4.935 4.935 0 0 1 8.1 5.51c4.153 0 10.834 4 17.021 10.186a46.4 46.4 0 0 1 8.424 11.067c2.784 5.456 1.75 8.219.393 9.575a4.933 4.933 0 0 1-3.623 1.37zM8.1 6.51a3.961 3.961 0 0 0-2.916 1.076C3.574 9.2 3.773 12.105 5.76 16A45.462 45.462 0 0 0 14 26.815c6.01 6.01 12.414 9.893 16.315 9.893a3.954 3.954 0 0 0 2.914-1.077c1.611-1.609 1.412-4.518-.575-8.413A45.455 45.455 0 0 0 24.413 16.4C18.4 10.393 12 6.51 8.1 6.51zm22.215 29.322c-3.624 0-9.931-3.872-15.7-9.636C8.032 19.607 2.933 11.077 5.8 8.206a3.116 3.116 0 0 1 2.3-.82c3.625 0 9.932 3.872 15.7 9.636a44.528 44.528 0 0 1 8.08 10.594c1.771 3.473 2.033 6.1.736 7.4a3.116 3.116 0 0 1-2.301.816zM8.1 8.386a2.165 2.165 0 0 0-1.588.527c-1.874 1.874 1.221 8.981 8.816 16.576 5.5 5.5 11.665 9.343 14.988 9.343a2.165 2.165 0 0 0 1.588-.527c.951-.951.616-3.223-.921-6.235a43.5 43.5 0 0 0-7.895-10.341C17.586 12.228 11.423 8.386 8.1 8.386z" fill="#c42032"/><path d="M28.132 24.768A2.863 2.863 0 1 1 31 21.905a2.866 2.866 0 0 1-2.863 2.863m0 2.5a5.364 5.364 0 1 0-5.364-5.364 5.364 5.364 0 0 0 5.364 5.364z" fill="#fff"/><path d="M28.132 27.769A5.864 5.864 0 1 1 34 21.906a5.87 5.87 0 0 1-5.868 5.863zm0-10.727A4.864 4.864 0 1 0 33 21.906a4.869 4.869 0 0 0-4.868-4.864zm0 8.226a3.363 3.363 0 1 1 3.368-3.362 3.366 3.366 0 0 1-3.368 3.362zm0-5.725a2.363 2.363 0 1 0 2.368 2.363 2.365 2.365 0 0 0-2.368-2.363z" fill="#c42032"/><path d="M10.069 24.471a2.863 2.863 0 1 1 2.863-2.862 2.866 2.866 0 0 1-2.863 2.862m0 2.5a5.364 5.364 0 1 0-5.364-5.364 5.365 5.365 0 0 0 5.364 5.364z" fill="#fff"/><path d="M10.069 27.473a5.864 5.864 0 1 1 5.864-5.864 5.871 5.871 0 0 1-5.864 5.864zm0-10.728a4.864 4.864 0 1 0 4.864 4.864 4.869 4.869 0 0 0-4.864-4.864zm0 8.226a3.362 3.362 0 1 1 3.363-3.362 3.366 3.366 0 0 1-3.363 3.362zm0-5.724a2.362 2.362 0 1 0 2.363 2.362 2.364 2.364 0 0 0-2.363-2.362z" fill="#c42032"/><path d="M8.1 35.332a2.644 2.644 0 0 1-1.942-.674c-2.338-2.338 1.61-10.075 8.817-17.282 5.8-5.8 11.945-9.49 15.341-9.49a2.648 2.648 0 0 1 1.942.673C34.6 10.9 30.647 18.635 23.44 25.842c-5.8 5.8-11.945 9.49-15.341 9.49m0 1.876c4.027 0 10.569-3.941 16.668-10.039A45.915 45.915 0 0 0 33.1 16.227c2.646-5.188 1.724-7.754.484-8.994a4.444 4.444 0 0 0-3.269-1.223c-4.027 0-10.569 3.941-16.668 10.039A45.931 45.931 0 0 0 5.315 26.99c-2.646 5.188-1.724 7.755-.484 9A4.443 4.443 0 0 0 8.1 37.208z" fill="#fff"/><path d="M8.1 37.708a4.936 4.936 0 0 1-3.623-1.37c-1.357-1.356-2.391-4.119.393-9.575A46.447 46.447 0 0 1 13.293 15.7C19.481 9.508 26.162 5.51 30.315 5.51a4.934 4.934 0 0 1 3.622 1.369c1.357 1.357 2.391 4.12-.393 9.576a46.4 46.4 0 0 1-8.424 11.067C18.933 33.71 12.252 37.708 8.1 37.708zM30.315 6.51c-3.9 0-10.3 3.883-16.315 9.893a45.462 45.462 0 0 0-8.24 10.815c-1.987 3.895-2.186 6.8-.576 8.413A3.956 3.956 0 0 0 8.1 36.708c3.9 0 10.3-3.883 16.313-9.893A45.455 45.455 0 0 0 32.654 16c1.987-3.895 2.186-6.8.575-8.414a3.958 3.958 0 0 0-2.914-1.076zM8.1 35.832a3.116 3.116 0 0 1-2.295-.82c-2.871-2.871 2.228-11.4 8.816-17.99 5.763-5.764 12.071-9.636 15.7-9.636a3.116 3.116 0 0 1 2.295.82c1.3 1.3 1.035 3.922-.736 7.4A44.548 44.548 0 0 1 23.794 26.2c-5.763 5.76-12.071 9.632-15.694 9.632zM30.315 8.386c-3.324 0-9.487 3.842-14.988 9.343-7.595 7.6-10.69 14.7-8.816 16.576a2.165 2.165 0 0 0 1.588.527c3.324 0 9.487-3.842 14.988-9.343a43.5 43.5 0 0 0 7.9-10.341c1.537-3.012 1.872-5.284.921-6.235a2.165 2.165 0 0 0-1.593-.527z" fill="#c42032"/><path fill="#fff" d="M1.522 38.545L37.114 2.954l.177.177L1.7 38.723z"/><path fill="#c42032" d="M37.114 2.247L.815 38.546l.885.884L37.998 3.132l-.884-.885z"/><path fill="#c42032" d="M37.817 0l-.648 1.231-1.158-.77.295 1.36-1.382.155 1.1.851-.96 1.008 1.39-.055-.087 1.388 1.03-.935.825 1.12.187-1.379 1.353.327-.743-1.176 1.246-.619-1.325-.424.557-1.274-1.287.527L37.817 0z"/><path fill="#fff" d="M1.075 38.09l.162.918.918.162-1.458.378.378-1.458z"/><path fill="#c42032" d="M1.168 35.739L0 40.245l4.506-1.168-2.837-.501-.501-2.837zm11.496 3.805a4.535 4.535 0 0 0-3.795 2.05 1.851 1.851 0 0 1-1.051-.368.5.5 0 0 0-.542-.026l-1.05.573.251.5h2.392c.177.048.393.091.622.131a.826.826 0 0 1-.351.435H10v-.361a20.69 20.69 0 0 0 2.663.162 11.807 11.807 0 0 0 2.135-.2.836.836 0 0 1-.342.4h.86v-.515a2.918 2.918 0 0 0 1.142-.475v-.26a4.535 4.535 0 0 0-3.794-2.046zm19.259 2.734l.251-.5-1.381-.753a1.749 1.749 0 0 1-1.248.572 4.538 4.538 0 0 0-7.59 0v.26a2.915 2.915 0 0 0 1.135.474v.516h.861a.841.841 0 0 1-.343-.4 11.785 11.785 0 0 0 2.142.2 20.823 20.823 0 0 0 2.657-.161v.36h.86a.822.822 0 0 1-.35-.434 7.36 7.36 0 0 0 .627-.132zm-9.968-.684a3.163 3.163 0 0 0-2.748-1.986 3.162 3.162 0 0 0-2.748 1.986v.26a3.1 3.1 0 0 0 .943.515l-.361.475h.725v-.355a5.953 5.953 0 0 0 1.441.156 6.31 6.31 0 0 0 1.441-.176v.375h.724l-.361-.476a2.042 2.042 0 0 0 .944-.514z"/></svg>
