<svg width="121" height="121" viewBox="0 0 121 121" fill="none" xmlns="http://www.w3.org/2000/svg">
<path fill-rule="evenodd" clip-rule="evenodd" d="M57.4347 1.86897C58.444 1.43569 59.4589 1 60.5 1C61.541 1 62.5558 1.43559 63.565 1.86883C64.4412 2.24493 65.3133 2.61925 66.1947 2.70527C66.3448 2.71956 66.4963 2.72599 66.6478 2.72599C67.4133 2.72599 68.2018 2.55765 68.9876 2.38986C69.7683 2.22317 70.5465 2.05704 71.2969 2.05704C71.5728 2.05704 71.8437 2.07991 72.111 2.13208C73.1275 2.33317 74.0357 2.95695 74.9407 3.57857C75.7275 4.11904 76.512 4.65789 77.3633 4.91583C78.0451 5.12238 78.7877 5.15811 79.5417 5.15811C79.7447 5.15811 79.9485 5.15561 80.1524 5.15311C80.3563 5.15061 80.5601 5.1481 80.7631 5.1481C81.6465 5.1481 82.5105 5.19813 83.276 5.51546C84.2292 5.91056 84.995 6.69815 85.7593 7.48422C86.426 8.16986 87.0916 8.85434 87.8793 9.2762C88.674 9.70175 89.6182 9.87767 90.5615 10.0534C91.6366 10.2537 92.7104 10.4538 93.5605 11.0229C94.4143 11.5947 95.0104 12.5141 95.606 13.4328C96.1271 14.2366 96.6478 15.0398 97.3405 15.6091C98.0356 16.18 98.9265 16.5359 99.8171 16.8916C100.833 17.2975 101.849 17.7032 102.574 18.4279C103.298 19.1526 103.704 20.1683 104.11 21.1843C104.466 22.075 104.821 22.9658 105.392 23.6609C105.962 24.3536 106.765 24.8743 107.568 25.3954C108.487 25.991 109.406 26.5871 109.978 27.441C110.547 28.2904 110.747 29.364 110.947 30.4389C111.123 31.3826 111.299 32.3272 111.725 33.1221C112.147 33.9098 112.832 34.5755 113.517 35.2424C114.303 36.0065 115.091 36.7722 115.486 37.7247C115.876 38.6656 115.861 39.7549 115.847 40.8472C115.835 41.8083 115.822 42.7717 116.085 43.6381C116.343 44.4889 116.881 45.2731 117.421 46.0597C118.043 46.9647 118.667 47.873 118.868 48.8897C119.065 49.884 118.838 50.9462 118.61 52.0132C118.409 52.9549 118.207 53.9003 118.295 54.806C118.381 55.687 118.755 56.5588 119.131 57.4347C119.564 58.444 120 59.4589 120 60.5C120 61.541 119.564 62.5558 119.131 63.5651C118.755 64.4412 118.381 65.3133 118.295 66.1947C118.207 67.1 118.409 68.0451 118.61 68.9867C118.838 70.0537 119.065 71.1162 118.868 72.111C118.667 73.1275 118.043 74.0357 117.421 74.9407C116.881 75.7275 116.342 76.512 116.084 77.3633C115.822 78.2292 115.835 79.192 115.847 80.1526C115.861 81.2454 115.875 82.3353 115.485 83.2767C115.09 84.2292 114.302 84.9949 113.517 85.759C112.831 86.4259 112.146 87.0916 111.725 87.8793C111.298 88.6744 111.122 89.6193 110.946 90.5632C110.746 91.6379 110.546 92.7112 109.978 93.5605C109.406 94.4143 108.486 95.0104 107.568 95.6059C106.764 96.127 105.96 96.6478 105.391 97.3405C104.82 98.0352 104.464 98.926 104.109 99.8166C103.703 100.833 103.297 101.849 102.572 102.574C101.847 103.298 100.832 103.704 99.8158 104.109L99.8157 104.109C98.9251 104.465 98.0342 104.821 97.3391 105.392C96.6464 105.961 96.1256 106.764 95.6045 107.568C95.0089 108.487 94.4129 109.407 93.5591 109.979C92.7094 110.547 91.6363 110.747 90.5618 110.947C89.6181 111.123 88.6733 111.299 87.8779 111.725C87.0903 112.147 86.4247 112.831 85.7579 113.517C84.9937 114.303 84.228 115.09 83.2753 115.485C82.5098 115.803 81.6458 115.853 80.7624 115.853C80.5596 115.853 80.3557 115.85 80.1518 115.848H80.1515L80.1499 115.848C79.9462 115.845 79.7424 115.843 79.5395 115.843C78.7855 115.843 78.0444 115.878 77.3619 116.085C76.5111 116.343 75.7269 116.881 74.9403 117.421C74.0353 118.043 73.127 118.667 72.1103 118.868C71.8437 118.921 71.5721 118.943 71.2969 118.943C70.546 118.943 69.7678 118.777 68.9871 118.61C68.2014 118.442 67.4132 118.274 66.6478 118.274C66.4956 118.274 66.3448 118.28 66.194 118.295C65.3127 118.381 64.4407 118.755 63.5645 119.131C62.5555 119.565 61.5408 120 60.5 120C59.4593 120 58.4447 119.565 57.4357 119.132L57.4356 119.132C56.5592 118.755 55.687 118.381 54.8053 118.295C54.6552 118.28 54.5037 118.274 54.3522 118.274C53.5868 118.274 52.7983 118.442 52.0125 118.61L52.0124 118.61C51.2316 118.777 50.4535 118.943 49.7031 118.943C49.4272 118.943 49.1563 118.921 48.889 118.868C47.8727 118.667 46.9647 118.043 46.06 117.422C45.2729 116.881 44.4882 116.343 43.6367 116.085C42.9549 115.878 42.2123 115.842 41.4583 115.842C41.2559 115.842 41.0526 115.845 40.8493 115.847L40.8476 115.847L40.8459 115.847C40.6426 115.85 40.4393 115.853 40.2369 115.853C39.3535 115.853 38.4895 115.803 37.724 115.485C36.7712 115.09 36.0055 114.303 35.2415 113.517C34.5745 112.831 33.9088 112.146 33.1207 111.725C32.3258 111.299 31.3812 111.122 30.4376 110.947C29.3629 110.746 28.2893 110.546 27.4395 109.977C26.5855 109.405 25.9894 108.486 25.3938 107.567C24.8728 106.763 24.3521 105.96 23.6595 105.39C22.9646 104.82 22.074 104.464 21.1836 104.109C20.1674 103.703 19.1514 103.297 18.4265 102.572C17.7018 101.847 17.2961 100.832 16.8904 99.8158C16.5345 98.9249 16.1787 98.0339 15.6077 97.3391C15.0384 96.6464 14.2354 96.1257 13.4317 95.6046L13.4317 95.6045C12.5132 95.0089 11.594 94.4129 11.0222 93.5591C10.4532 92.7096 10.2531 91.636 10.0527 90.5611C9.87685 89.6174 9.70076 88.6728 9.27477 87.8779C8.8531 87.0902 8.1685 86.4245 7.48267 85.7576L7.48262 85.7576C6.69681 84.9935 5.90939 84.2278 5.51403 83.2753C5.12437 82.3344 5.13852 81.2451 5.15272 80.1528C5.16521 79.1917 5.17773 78.2283 4.91511 77.3619C4.65722 76.5111 4.11871 75.7269 3.57851 74.9403C2.95697 74.0353 2.33321 73.127 2.13208 72.1103C1.93542 71.1156 2.16227 70.0534 2.39011 68.9864C2.59119 68.0449 2.79305 67.0996 2.70527 66.194C2.61926 65.313 2.24502 64.4412 1.86897 63.5653C1.43569 62.556 1 61.5411 1 60.5C1 59.4589 1.43569 58.444 1.86897 57.4347C2.24502 56.5588 2.61926 55.687 2.70527 54.806C2.79305 53.9004 2.5912 52.955 2.39012 52.0133C2.16227 50.9461 1.93542 49.8837 2.13208 48.889C2.33317 47.8725 2.95695 46.9643 3.57857 46.0593C4.11904 45.2725 4.65789 44.488 4.91583 43.6367C5.17796 42.7708 5.16542 41.808 5.15292 40.8474C5.13869 39.7546 5.1245 38.6647 5.51474 37.7233C5.9101 36.7708 6.69752 36.0051 7.48334 35.241C8.16918 34.5741 8.85381 33.9084 9.27548 33.1207C9.70159 32.3256 9.87765 31.3807 10.0535 30.4368C10.2538 29.3621 10.4537 28.2888 11.0222 27.4395C11.594 26.5857 12.5136 25.9896 13.4324 25.3941C14.2364 24.8729 15.0398 24.3522 15.6091 23.6595C16.18 22.9648 16.5357 22.074 16.8913 21.1834C17.297 20.1673 17.7027 19.1512 18.4279 18.4265C19.1526 17.7018 20.1683 17.2963 21.1842 16.8906C22.0749 16.535 22.9658 16.1793 23.6609 15.6084C24.3536 15.0391 24.8744 14.2357 25.3955 13.4317C25.9911 12.5129 26.5871 11.5933 27.441 11.0215C28.2908 10.4529 29.3643 10.2529 30.4391 10.0527C31.3825 9.87703 32.3269 9.70112 33.1221 9.27548C33.9095 8.85365 34.575 8.16922 35.2416 7.48363C36.006 6.69751 36.7719 5.90986 37.7247 5.51474C38.4902 5.19742 39.3542 5.14739 40.2376 5.14739C40.4405 5.14739 40.6444 5.15007 40.8484 5.15275L40.8485 5.15275C41.0527 5.15543 41.257 5.15811 41.4605 5.15811C42.2145 5.15811 42.9556 5.12166 43.6381 4.91511C44.4891 4.65748 45.2735 4.11876 46.0604 3.57833C46.9652 2.95687 47.8733 2.33316 48.8897 2.13208C49.1563 2.07991 49.4279 2.05704 49.7031 2.05704C50.454 2.05704 51.2322 2.22321 52.0129 2.38992C52.7986 2.55769 53.5868 2.72599 54.3522 2.72599C54.5044 2.72599 54.6552 2.71956 54.806 2.70527C55.687 2.61926 56.5588 2.24502 57.4347 1.86897ZM62.9947 3.17937C62.095 2.79368 61.2452 2.4294 60.5 2.4294C59.7548 2.4294 58.9051 2.79369 58.0054 3.17938L57.9993 3.18197C57.0395 3.59435 56.0475 4.02031 54.9447 4.12752C54.7539 4.1461 54.5545 4.15539 54.3522 4.15539C53.436 4.15539 52.5612 3.96885 51.7143 3.78804L51.7121 3.78758C50.9868 3.63266 50.3021 3.48643 49.7031 3.48643C49.5051 3.48643 49.33 3.50216 49.1671 3.53432C48.4395 3.67869 47.6769 4.20184 46.8693 4.75645C46.0074 5.34893 45.1155 5.96072 44.052 6.28304C43.1679 6.55106 42.2459 6.58751 41.4605 6.58751C41.2504 6.58751 41.0403 6.58465 40.8302 6.58179L40.8301 6.58179L40.7108 6.58044C40.5526 6.57861 40.3947 6.57679 40.2376 6.57679C39.5408 6.57679 38.8197 6.60823 38.2722 6.83551C37.5911 7.11781 36.9479 7.77891 36.2668 8.48002L36.2667 8.48011L36.2667 8.48016C35.5356 9.23198 34.7802 10.0088 33.7975 10.5348C32.8069 11.0651 31.7363 11.2652 30.7014 11.4582L30.6985 11.4587C29.7433 11.6365 28.8405 11.8045 28.2357 12.2093C27.627 12.6172 27.1262 13.3901 26.5961 14.2081L26.5961 14.2081L26.5961 14.2081L26.5955 14.209L26.5948 14.2101C26.0233 15.0917 25.4323 16.0032 24.5686 16.7126C23.703 17.424 22.6932 17.827 21.7162 18.217L21.7141 18.2178L21.7079 18.2203C20.8061 18.581 19.9548 18.9215 19.4385 19.4371C18.923 19.9533 18.5824 20.8046 18.2217 21.7064L18.2192 21.7127C17.829 22.6904 17.4252 23.7002 16.7134 24.5672C16.004 25.4309 15.0925 26.0218 14.2109 26.5933L14.2098 26.594C13.3915 27.1243 12.6189 27.6253 12.2108 28.235C11.8055 28.8403 11.6369 29.743 11.4589 30.7L11.4573 30.7087C11.2641 31.7409 11.0643 32.8082 10.5362 33.796C10.0095 34.7787 9.23272 35.5341 8.4809 36.2652L8.48085 36.2652L8.48077 36.2653C7.77965 36.9464 7.11855 37.5904 6.83553 38.2708C6.55752 38.9404 6.56967 39.8581 6.58253 40.8294L6.58256 40.8317C6.59613 41.8852 6.61016 42.9743 6.28379 44.0512C5.96107 45.1136 5.35018 46.0042 4.75896 46.866L4.75894 46.866L4.75719 46.8686L4.75631 46.8699C4.20203 47.677 3.67864 48.4391 3.53435 49.167C3.39509 49.8719 3.58549 50.7658 3.78685 51.7112L3.78735 51.7135C4.00891 52.7484 4.23689 53.8176 4.12754 54.9439C4.02034 56.0467 3.59438 57.0394 3.182 57.9993L3.1794 58.0053C2.79371 58.905 2.42942 59.7548 2.42942 60.5C2.42942 61.2452 2.79371 62.095 3.17941 62.9947L3.182 63.0007C3.59438 63.9606 4.02034 64.9533 4.12754 66.0553C4.23689 67.1817 4.00891 68.2516 3.78735 69.2858L3.78624 69.291C3.5851 70.236 3.39524 71.1281 3.53435 71.833C3.67837 72.5588 4.20006 73.3194 4.75247 74.1249L4.75648 74.1307C5.34896 74.9933 5.96074 75.8846 6.28307 76.9473C6.60875 78.022 6.59547 79.1094 6.58264 80.1608L6.58253 80.1699C6.56967 81.1412 6.55752 82.0581 6.83482 82.7278C7.11784 83.4089 7.77893 84.0521 8.48005 84.734C9.23192 85.4644 10.0088 86.2205 10.5355 87.2032C11.0638 88.1907 11.2636 89.2586 11.4568 90.2919L11.4582 90.2993L11.4583 90.2996C11.6362 91.2558 11.8042 92.1583 12.2101 92.7643C12.6165 93.3718 13.3872 93.8719 14.2034 94.4016L14.2091 94.4053C15.091 94.9763 16.0022 95.5674 16.7127 96.4321C17.422 97.2953 17.8247 98.3018 18.2144 99.2756L18.2144 99.2756L18.2185 99.2859C18.5794 100.191 18.9204 101.045 19.4371 101.562C19.9533 102.077 20.8046 102.418 21.7064 102.778L21.7127 102.781L21.7147 102.782C22.6918 103.172 23.7016 103.575 24.5672 104.287C25.4309 104.996 26.0218 105.908 26.5934 106.789L26.5941 106.79L26.5947 106.791C27.1248 107.609 27.6256 108.382 28.2343 108.789C28.8396 109.194 29.7437 109.363 30.7 109.541L30.7021 109.542C31.7363 109.734 32.8062 109.934 33.7961 110.465C34.7758 110.989 35.5296 111.763 36.2587 112.512L36.2654 112.519C36.9465 113.22 37.5897 113.882 38.2708 114.164C38.819 114.392 39.5401 114.423 40.2369 114.423C40.4342 114.423 40.6314 114.42 40.8294 114.417C41.0395 114.415 41.2489 114.412 41.4583 114.412C42.2445 114.412 43.1665 114.448 44.0513 114.716C45.1119 115.038 46.0011 115.648 46.8616 116.238L46.8686 116.243L46.87 116.244C47.6771 116.798 48.4392 117.321 49.1671 117.466C49.3293 117.498 49.5044 117.514 49.7031 117.514C50.302 117.514 50.9881 117.367 51.7135 117.212C52.5605 117.031 53.4352 116.845 54.3522 116.845C54.5545 116.845 54.7531 116.854 54.9447 116.872C56.0465 116.98 57.0383 117.405 57.9987 117.818L57.9993 117.818C58.9013 118.205 59.7532 118.571 60.5 118.571C61.2469 118.571 62.0988 118.205 63.0008 117.818C63.9606 117.406 64.9526 116.98 66.0554 116.872C66.2469 116.854 66.4456 116.845 66.6479 116.845C67.5584 116.845 68.428 117.03 69.27 117.209L69.2858 117.212L69.2881 117.212C70.0134 117.367 70.698 117.514 71.297 117.514C71.4949 117.514 71.67 117.498 71.833 117.466C72.5587 117.322 73.3193 116.8 74.1247 116.248L74.1248 116.248L74.1307 116.244C74.9927 115.651 75.8846 115.039 76.9481 114.717C77.8329 114.449 78.7541 114.413 79.5396 114.413C79.7497 114.413 79.9598 114.415 80.1699 114.418L80.2895 114.42C80.4476 114.421 80.6055 114.423 80.7624 114.423C81.4593 114.423 82.1804 114.392 82.7278 114.165C83.409 113.882 84.0522 113.221 84.7333 112.52L84.7334 112.52C85.4645 111.768 86.2199 110.991 87.2026 110.465C88.1904 109.936 89.2579 109.737 90.2902 109.544L90.2986 109.543L90.3056 109.541C91.26 109.363 92.1605 109.195 92.7643 108.791C93.373 108.383 93.8739 107.61 94.404 106.792L94.4046 106.791C94.9763 105.909 95.5674 104.998 96.4315 104.287C97.2977 103.576 98.3082 103.172 99.2859 102.782L99.2922 102.78L99.2923 102.78C100.194 102.419 101.045 102.078 101.562 101.563C102.078 101.047 102.418 100.195 102.779 99.2913L102.781 99.2874C103.171 98.3104 103.575 97.2998 104.287 96.4336C104.996 95.5688 105.908 94.9777 106.79 94.4067L106.793 94.4051C107.61 93.8746 108.382 93.374 108.789 92.765C109.195 92.1597 109.363 91.257 109.541 90.3007L109.543 90.2932C109.736 89.2599 109.936 88.1921 110.464 87.2047C110.991 86.222 111.767 85.4658 112.519 84.7347C113.22 84.0536 113.882 83.4096 114.165 82.7285C114.443 82.0589 114.43 81.142 114.418 80.1707V80.1706L114.418 80.1683C114.404 79.1149 114.39 78.0257 114.716 76.9488C115.039 75.8853 115.651 74.9941 116.243 74.1321L116.246 74.1276C116.799 73.3209 117.322 72.5599 117.466 71.8337C117.605 71.1285 117.415 70.2351 117.214 69.2895L117.213 69.2858C116.991 68.2516 116.763 67.1824 116.873 66.0561C116.98 64.9533 117.406 63.9606 117.818 63.0007L117.821 62.9946C118.206 62.0949 118.571 61.2452 118.571 60.5C118.571 59.7549 118.206 58.9052 117.821 58.0056L117.821 58.0054L117.818 57.9993C117.406 57.0394 116.98 56.0467 116.873 54.9447C116.763 53.8183 116.991 52.7484 117.213 51.7142L117.214 51.709L117.214 51.7089C117.415 50.7639 117.605 49.8718 117.466 49.167C117.322 48.4412 116.8 47.6806 116.248 46.8752L116.244 46.8693C115.651 46.0074 115.039 45.1154 114.717 44.0527C114.391 42.9781 114.405 41.8907 114.417 40.8393V40.8392L114.418 40.8301V40.83C114.43 39.8588 114.443 38.9418 114.165 38.2722C113.882 37.5918 113.221 36.9479 112.52 36.2668L112.52 36.2666L112.52 36.2666C111.768 35.5355 110.991 34.7801 110.465 33.7968C109.936 32.8093 109.737 31.7415 109.543 30.7083L109.542 30.7007L109.542 30.7005C109.364 29.7443 109.196 28.8417 108.79 28.2364C108.383 27.627 107.61 27.1262 106.792 26.5961L106.792 26.596L106.791 26.5955C105.909 26.0237 104.998 25.4326 104.287 24.5686C103.577 23.7033 103.174 22.6957 102.784 21.7198L102.782 21.7141L102.78 21.7114L102.78 21.7113C102.42 20.8082 102.079 19.9547 101.563 19.4385C101.047 18.9229 100.195 18.5824 99.2936 18.2217L99.2874 18.2192C98.3097 17.829 97.2991 17.4252 96.4329 16.7141C95.5692 16.0039 94.9782 15.0924 94.4067 14.2108L94.406 14.2098C93.8757 13.3914 93.3747 12.6188 92.7658 12.2107C92.1604 11.8055 91.2563 11.6368 90.3001 11.4589C89.2652 11.2659 88.1946 11.0658 87.204 10.5355C86.2214 10.0095 85.466 9.23273 84.7349 8.48093L84.7348 8.48082L84.7347 8.48074C84.0536 7.77962 83.4104 7.11781 82.7293 6.83551C82.1811 6.60823 81.4607 6.5775 80.7639 6.5775C80.5666 6.5775 80.3686 6.57964 80.1707 6.5825L80.0436 6.58386C79.8761 6.58568 79.7089 6.58751 79.5417 6.58751C78.7556 6.58751 77.8336 6.55177 76.9488 6.28376C75.8882 5.96231 74.9989 5.35227 74.1385 4.762L74.1315 4.75716L74.1302 4.7563C73.3231 4.20201 72.5609 3.67861 71.833 3.53432C71.6708 3.50216 71.4957 3.48643 71.297 3.48643C70.6981 3.48643 70.0119 3.63295 69.2858 3.78804C68.4396 3.96885 67.5648 4.15539 66.6479 4.15539C66.4456 4.15539 66.2469 4.1461 66.0554 4.12752C64.9535 4.02033 63.9617 3.59453 63.0014 3.18223L63.0008 3.18197L62.9947 3.17937ZM60.1426 6.89768C30.777 6.89768 6.92745 30.5113 6.54499 59.7854H6.54029V61.2148H6.54499C6.92761 90.4889 30.7771 114.102 60.1426 114.102C89.7468 114.102 113.745 90.1035 113.745 60.5C113.745 30.8965 89.7468 6.89768 60.1426 6.89768ZM11.8598 61.2148H7.97457C8.35844 89.6547 31.6133 112.673 60.1427 112.673C88.672 112.673 111.927 89.6547 112.311 61.2148H108.42C108.038 87.5513 86.57 108.783 60.1427 108.783C33.4766 108.783 11.8598 87.1659 11.8598 60.4999C11.8598 33.8345 33.4766 12.2177 60.1427 12.2177C86.5702 12.2177 108.038 33.4495 108.42 59.7854H112.311C111.927 31.3454 88.6721 8.32708 60.1427 8.32708C31.6132 8.32708 8.35828 31.3454 7.97456 59.7854H11.8598V61.2148ZM60.1427 13.6471C85.9776 13.6471 106.996 34.665 106.996 60.4999C106.996 86.3347 85.9776 107.353 60.1427 107.353C34.3078 107.353 13.2893 86.3347 13.2893 60.4999C13.2893 34.665 34.3078 13.6471 60.1427 13.6471Z" fill="#CCC9B8"/>
<path d="M57.4347 1.86897L57.484 1.98383L57.484 1.98383L57.4347 1.86897ZM63.565 1.86883L63.6144 1.75396L63.6144 1.75396L63.565 1.86883ZM66.1947 2.70527L66.1826 2.82968L66.1829 2.82971L66.1947 2.70527ZM68.9876 2.38986L69.0137 2.51211L69.0137 2.51211L68.9876 2.38986ZM72.111 2.13208L72.1352 2.00946L72.1349 2.0094L72.111 2.13208ZM74.9407 3.57857L75.0114 3.47553L75.0114 3.47553L74.9407 3.57857ZM77.3633 4.91583L77.327 5.03546L77.327 5.03546L77.3633 4.91583ZM80.1524 5.15311L80.1509 5.02812L80.1509 5.02812L80.1524 5.15311ZM83.276 5.51546L83.2281 5.63093L83.2281 5.63093L83.276 5.51546ZM85.7593 7.48422L85.6697 7.57136L85.6697 7.57136L85.7593 7.48422ZM87.8793 9.2762L87.9384 9.166L87.9384 9.166L87.8793 9.2762ZM90.5615 10.0534L90.5386 10.1763L90.5386 10.1763L90.5615 10.0534ZM93.5605 11.0229L93.63 10.9191L93.63 10.919L93.5605 11.0229ZM95.606 13.4328L95.5011 13.5008L95.5011 13.5008L95.606 13.4328ZM97.3405 15.6091L97.2611 15.7057L97.2612 15.7057L97.3405 15.6091ZM99.8171 16.8916L99.8635 16.7756L99.8635 16.7756L99.8171 16.8916ZM104.11 21.1843L103.994 21.2307L103.994 21.2307L104.11 21.1843ZM105.392 23.6609L105.296 23.7403L105.296 23.7403L105.392 23.6609ZM107.568 25.3954L107.5 25.5003L107.5 25.5003L107.568 25.3954ZM109.978 27.441L109.874 27.5105L109.874 27.5105L109.978 27.441ZM110.947 30.4389L110.824 30.4618L110.824 30.4618L110.947 30.4389ZM111.725 33.1221L111.835 33.0631L111.835 33.063L111.725 33.1221ZM113.517 35.2424L113.43 35.332L113.43 35.332L113.517 35.2424ZM115.486 37.7247L115.601 37.6769L115.601 37.6768L115.486 37.7247ZM115.847 40.8472L115.722 40.8455L115.722 40.8455L115.847 40.8472ZM116.085 43.6381L115.965 43.6744L115.965 43.6744L116.085 43.6381ZM117.421 46.0597L117.318 46.1304L117.318 46.1304L117.421 46.0597ZM118.868 48.8897L118.991 48.8655L118.991 48.8655L118.868 48.8897ZM118.61 52.0132L118.732 52.0393L118.732 52.0393L118.61 52.0132ZM118.295 54.806L118.17 54.8181L118.17 54.8182L118.295 54.806ZM119.131 57.4347L119.016 57.484L119.016 57.484L119.131 57.4347ZM119.131 63.5651L119.016 63.5157L119.016 63.5157L119.131 63.5651ZM118.295 66.1947L118.17 66.1826L118.17 66.1826L118.295 66.1947ZM118.61 68.9867L118.732 68.9606L118.732 68.9606L118.61 68.9867ZM118.868 72.111L118.991 72.1352L118.991 72.1352L118.868 72.111ZM117.421 74.9407L117.524 75.0114L117.524 75.0114L117.421 74.9407ZM116.084 77.3633L115.965 77.327L115.965 77.3271L116.084 77.3633ZM115.847 80.1526L115.722 80.1542L115.722 80.1542L115.847 80.1526ZM115.485 83.2767L115.601 83.3246L115.601 83.3246L115.485 83.2767ZM113.517 85.759L113.604 85.8486L113.604 85.8486L113.517 85.759ZM111.725 87.8793L111.835 87.9384L111.835 87.9383L111.725 87.8793ZM110.946 90.5632L110.824 90.5403L110.824 90.5403L110.946 90.5632ZM109.978 93.5605L110.082 93.63L110.082 93.63L109.978 93.5605ZM107.568 95.6059L107.636 95.7108L107.636 95.7108L107.568 95.6059ZM105.391 97.3405L105.294 97.2611L105.294 97.2611L105.391 97.3405ZM104.109 99.8166L103.993 99.7703L103.993 99.7703L104.109 99.8166ZM102.572 102.574L102.484 102.485L102.484 102.485L102.572 102.574ZM99.8158 104.109L99.8554 104.228L99.8621 104.225L99.8158 104.109ZM99.8157 104.109L99.7761 103.991L99.7694 103.993L99.8157 104.109ZM97.3391 105.392L97.2597 105.295L97.2597 105.295L97.3391 105.392ZM95.6045 107.568L95.7094 107.636L95.7094 107.636L95.6045 107.568ZM93.5591 109.979L93.6286 110.082L93.6286 110.082L93.5591 109.979ZM90.5618 110.947L90.5847 111.07L90.5847 111.07L90.5618 110.947ZM87.8779 111.725L87.9369 111.835L87.9369 111.835L87.8779 111.725ZM85.7579 113.517L85.6683 113.43L85.6683 113.43L85.7579 113.517ZM83.2753 115.485L83.3231 115.601L83.3231 115.601L83.2753 115.485ZM80.1518 115.848L80.1533 115.723H80.1518V115.848ZM80.1515 115.848L80.1497 115.973H80.1515V115.848ZM80.1499 115.848L80.1517 115.723L80.1514 115.723L80.1499 115.848ZM77.3619 116.085L77.3257 115.965L77.3256 115.965L77.3619 116.085ZM74.9403 117.421L74.8696 117.318L74.8696 117.318L74.9403 117.421ZM72.1103 118.868L72.086 118.745L72.0859 118.745L72.1103 118.868ZM68.9871 118.61L69.0132 118.488L69.0132 118.488L68.9871 118.61ZM66.194 118.295L66.2061 118.42L66.2064 118.42L66.194 118.295ZM63.5645 119.131L63.6138 119.246L63.6138 119.246L63.5645 119.131ZM57.4357 119.132L57.3737 119.24L57.3799 119.244L57.3864 119.246L57.4357 119.132ZM57.4356 119.132L57.4976 119.023L57.4914 119.019L57.4849 119.017L57.4356 119.132ZM54.8053 118.295L54.7928 118.42L54.7932 118.42L54.8053 118.295ZM52.0125 118.61L52.0336 118.733L52.0386 118.732L52.0125 118.61ZM52.0124 118.61L51.9912 118.487L51.9863 118.488L52.0124 118.61ZM48.889 118.868L48.9133 118.745L48.9133 118.745L48.889 118.868ZM46.06 117.422L45.9892 117.525L45.9892 117.525L46.06 117.422ZM43.6367 116.085L43.6004 116.204L43.6005 116.205L43.6367 116.085ZM40.8493 115.847L40.8477 115.722L40.8477 115.722L40.8493 115.847ZM40.8459 115.847L40.8475 115.972L40.8475 115.972L40.8459 115.847ZM37.724 115.485L37.6761 115.601L37.6761 115.601L37.724 115.485ZM35.2415 113.517L35.1518 113.604L35.1518 113.604L35.2415 113.517ZM33.1207 111.725L33.0616 111.835L33.0617 111.835L33.1207 111.725ZM30.4376 110.947L30.4147 111.069L30.4147 111.069L30.4376 110.947ZM27.4395 109.977L27.37 110.081L27.37 110.081L27.4395 109.977ZM25.3938 107.567L25.2889 107.635L25.2889 107.635L25.3938 107.567ZM23.6595 105.39L23.7389 105.294L23.7388 105.294L23.6595 105.39ZM21.1836 104.109L21.1373 104.225L21.1373 104.225L21.1836 104.109ZM18.4265 102.572L18.3381 102.66L18.3381 102.66L18.4265 102.572ZM16.8904 99.8158L16.7743 99.8621L16.7743 99.8621L16.8904 99.8158ZM15.6077 97.3391L15.7043 97.2597L15.7043 97.2597L15.6077 97.3391ZM13.4317 95.6046L13.3603 95.7072L13.3637 95.7095L13.4317 95.6046ZM13.4317 95.6045L13.5031 95.5019L13.4997 95.4997L13.4317 95.6045ZM11.0222 93.5591L11.1261 93.4895L11.1261 93.4895L11.0222 93.5591ZM10.0527 90.5611L9.92986 90.584L9.92986 90.584L10.0527 90.5611ZM9.27477 87.8779L9.16456 87.9369L9.16459 87.937L9.27477 87.8779ZM7.48267 85.7576L7.39285 85.8446L7.39552 85.8472L7.48267 85.7576ZM7.48262 85.7576L7.57244 85.6706L7.56976 85.668L7.48262 85.7576ZM5.51403 83.2753L5.39854 83.3231L5.39858 83.3232L5.51403 83.2753ZM5.15272 80.1528L5.27771 80.1545L5.27771 80.1545L5.15272 80.1528ZM4.91511 77.3619L5.03474 77.3256L5.03474 77.3256L4.91511 77.3619ZM3.57851 74.9403L3.68155 74.8696L3.68155 74.8696L3.57851 74.9403ZM2.13208 72.1103L2.00945 72.1345L2.00946 72.1345L2.13208 72.1103ZM2.39011 68.9864L2.26787 68.9603L2.26787 68.9603L2.39011 68.9864ZM2.70527 66.194L2.82969 66.1819L2.82968 66.1818L2.70527 66.194ZM1.86897 63.5653L1.98383 63.5159L1.98383 63.5159L1.86897 63.5653ZM1.86897 57.4347L1.98383 57.484L1.98383 57.484L1.86897 57.4347ZM2.70527 54.806L2.82968 54.8182L2.82969 54.8181L2.70527 54.806ZM2.39012 52.0133L2.26787 52.0394L2.26787 52.0394L2.39012 52.0133ZM2.13208 48.889L2.00946 48.8648L2.00945 48.8648L2.13208 48.889ZM3.57857 46.0593L3.47553 45.9886L3.47553 45.9886L3.57857 46.0593ZM4.91583 43.6367L5.03546 43.673L5.03547 43.6729L4.91583 43.6367ZM5.15292 40.8474L5.27791 40.8458L5.27791 40.8458L5.15292 40.8474ZM5.51474 37.7233L5.39929 37.6754L5.39927 37.6754L5.51474 37.7233ZM7.48334 35.241L7.57048 35.3306L7.57048 35.3306L7.48334 35.241ZM9.27548 33.1207L9.16531 33.0616L9.16528 33.0617L9.27548 33.1207ZM10.0535 30.4368L10.1764 30.4596L10.1764 30.4596L10.0535 30.4368ZM11.0222 27.4395L10.9183 27.37L10.9183 27.37L11.0222 27.4395ZM13.4324 25.3941L13.5004 25.499L13.5004 25.499L13.4324 25.3941ZM15.6091 23.6595L15.7057 23.7389L15.7057 23.7388L15.6091 23.6595ZM16.8913 21.1834L17.0074 21.2297L17.0074 21.2297L16.8913 21.1834ZM18.4279 18.4265L18.5163 18.5149L18.5163 18.5149L18.4279 18.4265ZM21.1842 16.8906L21.1379 16.7746L21.1379 16.7746L21.1842 16.8906ZM23.6609 15.6084L23.7403 15.705L23.7403 15.705L23.6609 15.6084ZM25.3955 13.4317L25.5004 13.4997L25.5004 13.4997L25.3955 13.4317ZM27.441 11.0215L27.3714 10.9176L27.3714 10.9176L27.441 11.0215ZM30.4391 10.0527L30.4162 9.92986L30.4162 9.92986L30.4391 10.0527ZM33.1221 9.27548L33.1811 9.38569L33.1811 9.38567L33.1221 9.27548ZM35.2416 7.48363L35.3312 7.57077L35.3312 7.57077L35.2416 7.48363ZM37.7247 5.51474L37.6769 5.39927L37.6769 5.39928L37.7247 5.51474ZM40.8484 5.15275L40.8516 5.02778L40.8501 5.02776L40.8484 5.15275ZM40.8485 5.15275L40.8454 5.27772L40.8469 5.27774L40.8485 5.15275ZM43.6381 4.91511L43.6743 5.03475L43.6744 5.03475L43.6381 4.91511ZM46.0604 3.57833L46.1311 3.68137L46.1311 3.68137L46.0604 3.57833ZM48.8897 2.13208L48.8657 2.00941L48.8655 2.00946L48.8897 2.13208ZM52.0129 2.38992L52.039 2.26768L52.039 2.26768L52.0129 2.38992ZM54.806 2.70527L54.8178 2.82971L54.8182 2.82968L54.806 2.70527ZM62.9947 3.17937L63.0439 3.06448L63.0439 3.06448L62.9947 3.17937ZM58.0054 3.17938L58.0546 3.29427L58.0546 3.29427L58.0054 3.17938ZM57.9993 3.18197L57.9501 3.06708L57.95 3.06712L57.9993 3.18197ZM54.9447 4.12752L54.9326 4.0031L54.9326 4.0031L54.9447 4.12752ZM51.7143 3.78804L51.6881 3.91027L51.6882 3.91028L51.7143 3.78804ZM51.7121 3.78758L51.7383 3.66534L51.7383 3.66534L51.7121 3.78758ZM49.1671 3.53432L49.1429 3.41168L49.1427 3.41171L49.1671 3.53432ZM46.8693 4.75645L46.7986 4.65341L46.7985 4.65344L46.8693 4.75645ZM44.052 6.28304L44.0157 6.16342L44.0157 6.16342L44.052 6.28304ZM40.8302 6.58179L40.8285 6.70678L40.8285 6.70678L40.8302 6.58179ZM40.8301 6.58179L40.8319 6.4568L40.8315 6.4568L40.8301 6.58179ZM40.7108 6.58044L40.7093 6.70543L40.7094 6.70543L40.7108 6.58044ZM38.2722 6.83551L38.3201 6.95098L38.3202 6.95095L38.2722 6.83551ZM36.2668 8.48002L36.1771 8.39291L36.1754 8.39473L36.2668 8.48002ZM36.2667 8.48011L36.3565 8.56714L36.3581 8.5654L36.2667 8.48011ZM36.2667 8.48016L36.3563 8.5673L36.3564 8.56718L36.2667 8.48016ZM33.7975 10.5348L33.7385 10.4246L33.7385 10.4246L33.7975 10.5348ZM30.7014 11.4582L30.7243 11.5811L30.7243 11.5811L30.7014 11.4582ZM30.6985 11.4587L30.6757 11.3358L30.6757 11.3358L30.6985 11.4587ZM28.2357 12.2093L28.1662 12.1054L28.1661 12.1055L28.2357 12.2093ZM26.5961 14.2081L26.7001 14.2774L26.701 14.2761L26.5961 14.2081ZM26.5961 14.2081L26.7001 14.2774L26.5961 14.2081ZM26.5961 14.2081L26.4921 14.1388L26.4911 14.1403L26.5961 14.2081ZM26.5955 14.209L26.7003 14.2772L26.7005 14.2768L26.5955 14.209ZM26.5948 14.2101L26.49 14.1419L26.4899 14.1421L26.5948 14.2101ZM24.5686 16.7126L24.4893 16.616L24.4892 16.6161L24.5686 16.7126ZM21.7162 18.217L21.7625 18.3331L21.7625 18.333L21.7162 18.217ZM21.7141 18.2178L21.6678 18.1017L21.6677 18.1017L21.7141 18.2178ZM21.7079 18.2203L21.7543 18.3363L21.7543 18.3363L21.7079 18.2203ZM19.4385 19.4371L19.3502 19.3486L19.3501 19.3487L19.4385 19.4371ZM18.2217 21.7064L18.3378 21.7529L18.3378 21.7528L18.2217 21.7064ZM18.2192 21.7127L18.1032 21.6662L18.1031 21.6663L18.2192 21.7127ZM16.7134 24.5672L16.81 24.6465L16.81 24.6465L16.7134 24.5672ZM14.2109 26.5933L14.1429 26.4885L14.1428 26.4885L14.2109 26.5933ZM14.2098 26.594L14.2778 26.6989L14.2778 26.6989L14.2098 26.594ZM12.2108 28.235L12.3146 28.3045L12.3146 28.3045L12.2108 28.235ZM11.4589 30.7L11.5818 30.723L11.5818 30.7228L11.4589 30.7ZM11.4573 30.7087L11.5802 30.7317L11.5802 30.7317L11.4573 30.7087ZM10.5362 33.796L10.6464 33.8551L10.6465 33.855L10.5362 33.796ZM8.4809 36.2652L8.56792 36.3549L8.56805 36.3548L8.4809 36.2652ZM8.48085 36.2652L8.56616 36.3566L8.56787 36.355L8.48085 36.2652ZM8.48077 36.2653L8.39546 36.1739L8.39367 36.1757L8.48077 36.2653ZM6.83553 38.2708L6.72012 38.2228L6.72009 38.2228L6.83553 38.2708ZM6.58253 40.8294L6.70752 40.8278L6.70752 40.8277L6.58253 40.8294ZM6.58256 40.8317L6.45757 40.8333L6.45757 40.8333L6.58256 40.8317ZM6.28379 44.0512L6.40339 44.0876L6.40342 44.0875L6.28379 44.0512ZM4.75896 46.866L4.86001 46.9397L4.86204 46.9367L4.75896 46.866ZM4.75894 46.866L4.6579 46.7924L4.65592 46.7952L4.75894 46.866ZM4.75719 46.8686L4.65417 46.7978L4.65411 46.7979L4.75719 46.8686ZM4.75631 46.8699L4.85936 46.9406L4.8594 46.9406L4.75631 46.8699ZM3.53435 49.167L3.41173 49.1427L3.41172 49.1428L3.53435 49.167ZM3.78685 51.7112L3.90912 51.6852L3.90911 51.6851L3.78685 51.7112ZM3.78735 51.7135L3.66508 51.7395L3.66512 51.7397L3.78735 51.7135ZM4.12754 54.9439L4.25196 54.956L4.25196 54.956L4.12754 54.9439ZM3.182 57.9993L3.06715 57.9499L3.06711 57.95L3.182 57.9993ZM3.1794 58.0053L3.29428 58.0546L3.29428 58.0546L3.1794 58.0053ZM3.17941 62.9947L3.29431 62.9454L3.29429 62.9454L3.17941 62.9947ZM3.182 63.0007L3.0671 63.0499L3.06715 63.0501L3.182 63.0007ZM4.12754 66.0553L4.25196 66.0433L4.25196 66.0432L4.12754 66.0553ZM3.78735 69.2858L3.66512 69.2596L3.66508 69.2598L3.78735 69.2858ZM3.78624 69.291L3.9085 69.317L3.90851 69.317L3.78624 69.291ZM3.53435 71.833L3.41171 71.8572L3.41174 71.8573L3.53435 71.833ZM4.75247 74.1249L4.85561 74.0542L4.85555 74.0542L4.75247 74.1249ZM4.75648 74.1307L4.65334 74.2013L4.65344 74.2015L4.75648 74.1307ZM6.28307 76.9473L6.4027 76.9111L6.40269 76.9111L6.28307 76.9473ZM6.58264 80.1608L6.70763 80.1623L6.70763 80.1623L6.58264 80.1608ZM6.58253 80.1699L6.70752 80.1716L6.70752 80.1714L6.58253 80.1699ZM6.83482 82.7278L6.71933 82.7756L6.71939 82.7758L6.83482 82.7278ZM8.48005 84.734L8.39291 84.8236L8.39295 84.8236L8.48005 84.734ZM10.5355 87.2032L10.6457 87.1443L10.6457 87.1442L10.5355 87.2032ZM11.4568 90.2919L11.3339 90.3148L11.3339 90.3148L11.4568 90.2919ZM11.4582 90.2993L11.3353 90.3223L11.3353 90.3224L11.4582 90.2993ZM11.4583 90.2996L11.5811 90.2768L11.5811 90.2766L11.4583 90.2996ZM12.2101 92.7643L12.314 92.6948L12.3139 92.6947L12.2101 92.7643ZM14.2034 94.4016L14.2715 94.2967L14.2714 94.2967L14.2034 94.4016ZM14.2091 94.4053L14.141 94.5101L14.1411 94.5102L14.2091 94.4053ZM16.7127 96.4321L16.6161 96.5115L16.6161 96.5115L16.7127 96.4321ZM18.2144 99.2756L18.3332 99.236L18.3304 99.2291L18.2144 99.2756ZM18.2144 99.2756L18.0956 99.3152L18.0983 99.322L18.2144 99.2756ZM18.2185 99.2859L18.3346 99.2396L18.3346 99.2395L18.2185 99.2859ZM19.4371 101.562L19.3487 101.65L19.3488 101.65L19.4371 101.562ZM21.7064 102.778L21.7529 102.662L21.7528 102.662L21.7064 102.778ZM21.7127 102.781L21.6661 102.897L21.6661 102.897L21.7127 102.781ZM21.7147 102.782L21.6681 102.898L21.6683 102.898L21.7147 102.782ZM24.5672 104.287L24.4878 104.383L24.4878 104.383L24.5672 104.287ZM26.5934 106.789L26.4885 106.857L26.4887 106.857L26.5934 106.789ZM26.5941 106.79L26.4894 106.859L26.4894 106.859L26.5941 106.79ZM26.5947 106.791L26.6996 106.723L26.6994 106.723L26.5947 106.791ZM28.2343 108.789L28.3038 108.685L28.3038 108.685L28.2343 108.789ZM30.7 109.541L30.723 109.418L30.7229 109.418L30.7 109.541ZM30.7021 109.542L30.6791 109.664L30.6792 109.664L30.7021 109.542ZM33.7961 110.465L33.737 110.575L33.7371 110.575L33.7961 110.465ZM36.2587 112.512L36.3484 112.425L36.3483 112.425L36.2587 112.512ZM36.2654 112.519L36.355 112.432L36.355 112.432L36.2654 112.519ZM38.2708 114.164L38.3187 114.049L38.3187 114.049L38.2708 114.164ZM40.8294 114.417L40.8277 114.293L40.8276 114.293L40.8294 114.417ZM44.0513 114.716L44.0875 114.597L44.0875 114.597L44.0513 114.716ZM46.8616 116.238L46.7909 116.341L46.791 116.341L46.8616 116.238ZM46.8686 116.243L46.798 116.346L46.7981 116.346L46.8686 116.243ZM46.87 116.244L46.9408 116.141L46.9405 116.141L46.87 116.244ZM49.1671 117.466L49.1914 117.343L49.1914 117.343L49.1671 117.466ZM51.7135 117.212L51.6874 117.09L51.6874 117.09L51.7135 117.212ZM54.9447 116.872L54.9568 116.748L54.9568 116.748L54.9447 116.872ZM57.9987 117.818L57.9494 117.933L57.9508 117.933L57.9987 117.818ZM57.9993 117.818L58.0486 117.703L58.0472 117.703L57.9993 117.818ZM63.0008 117.818L63.0501 117.933L63.0501 117.933L63.0008 117.818ZM66.0554 116.872L66.0433 116.748L66.0433 116.748L66.0554 116.872ZM69.27 117.209L69.296 117.086L69.296 117.086L69.27 117.209ZM69.2858 117.212L69.312 117.09L69.3118 117.09L69.2858 117.212ZM69.2881 117.212L69.2619 117.335L69.2619 117.335L69.2881 117.212ZM71.833 117.466L71.8572 117.588L71.8573 117.588L71.833 117.466ZM74.1247 116.248L74.0603 116.14L74.054 116.145L74.1247 116.248ZM74.1248 116.248L74.1893 116.355L74.1956 116.351L74.1248 116.248ZM74.1307 116.244L74.2015 116.347L74.2016 116.347L74.1307 116.244ZM76.9481 114.717L76.9843 114.837L76.9843 114.837L76.9481 114.717ZM80.1699 114.418L80.1682 114.543L80.1685 114.543L80.1699 114.418ZM80.2895 114.42L80.291 114.295L80.2909 114.295L80.2895 114.42ZM82.7278 114.165L82.7756 114.281L82.7758 114.281L82.7278 114.165ZM84.7333 112.52L84.6449 112.432L84.6436 112.433L84.7333 112.52ZM84.7334 112.52L84.8218 112.608L84.823 112.607L84.7334 112.52ZM87.2026 110.465L87.2616 110.575L87.2616 110.575L87.2026 110.465ZM90.2902 109.544L90.3131 109.667L90.3131 109.667L90.2902 109.544ZM90.2986 109.543L90.3216 109.665L90.3217 109.665L90.2986 109.543ZM90.3056 109.541L90.2827 109.418L90.2826 109.418L90.3056 109.541ZM92.7643 108.791L92.8339 108.895L92.8339 108.895L92.7643 108.791ZM94.404 106.792L94.2996 106.723L94.2991 106.724L94.404 106.792ZM94.4046 106.791L94.509 106.86L94.5095 106.859L94.4046 106.791ZM96.4315 104.287L96.3521 104.191L96.3521 104.191L96.4315 104.287ZM99.2859 102.782L99.3322 102.898L99.3324 102.898L99.2859 102.782ZM99.2922 102.78L99.2526 102.661L99.2458 102.664L99.2922 102.78ZM99.2923 102.78L99.3319 102.898L99.3387 102.896L99.2923 102.78ZM101.562 101.563L101.65 101.651L101.65 101.651L101.562 101.563ZM102.779 99.2913L102.663 99.2448L102.663 99.2449L102.779 99.2913ZM102.781 99.2874L102.897 99.3339L102.897 99.3337L102.781 99.2874ZM104.287 96.4336L104.383 96.5129L104.383 96.5129L104.287 96.4336ZM106.79 94.4067L106.858 94.5116L106.858 94.5116L106.79 94.4067ZM106.793 94.4051L106.861 94.51L106.861 94.5099L106.793 94.4051ZM108.789 92.765L108.685 92.6955L108.685 92.6955L108.789 92.765ZM109.541 90.3007L109.418 90.2777L109.418 90.2779L109.541 90.3007ZM109.543 90.2932L109.665 90.3163L109.665 90.3162L109.543 90.2932ZM110.464 87.2047L110.354 87.1456L110.354 87.1457L110.464 87.2047ZM112.519 84.7347L112.432 84.645L112.432 84.6451L112.519 84.7347ZM114.165 82.7285L114.28 82.7765L114.28 82.7765L114.165 82.7285ZM114.418 80.1707H114.293L114.293 80.1724L114.418 80.1707ZM114.418 80.1706H114.543L114.543 80.1694L114.418 80.1706ZM114.418 80.1683L114.543 80.1671L114.543 80.1667L114.418 80.1683ZM114.716 76.9488L114.597 76.9124L114.597 76.9125L114.716 76.9488ZM116.243 74.1321L116.346 74.2029L116.346 74.2028L116.243 74.1321ZM116.246 74.1276L116.143 74.0568L116.143 74.0569L116.246 74.1276ZM117.466 71.8337L117.588 71.858L117.588 71.8579L117.466 71.8337ZM117.214 69.2895L117.336 69.2635L117.336 69.2634L117.214 69.2895ZM117.213 69.2858L117.335 69.2597L117.335 69.2596L117.213 69.2858ZM116.873 66.0561L116.748 66.044L116.748 66.044L116.873 66.0561ZM117.818 63.0007L117.933 63.0501L117.933 63.05L117.818 63.0007ZM117.821 62.9946L117.706 62.9454L117.706 62.9454L117.821 62.9946ZM117.821 58.0056L117.705 58.052L117.706 58.0548L117.821 58.0056ZM117.821 58.0054L117.937 57.9589L117.936 57.956L117.821 58.0054ZM117.818 57.9993L117.703 58.0486L117.703 58.0487L117.818 57.9993ZM116.873 54.9447L116.748 54.9567L116.748 54.9568L116.873 54.9447ZM117.213 51.7142L117.335 51.7404L117.335 51.7403L117.213 51.7142ZM117.214 51.709L117.098 51.6625L117.094 51.6724L117.092 51.6829L117.214 51.709ZM117.214 51.7089L117.33 51.7553L117.334 51.7454L117.336 51.7349L117.214 51.7089ZM117.466 49.167L117.588 49.1428L117.588 49.1427L117.466 49.167ZM116.248 46.8752L116.144 46.9458L116.145 46.9459L116.248 46.8752ZM116.244 46.8693L116.347 46.7987L116.347 46.7985L116.244 46.8693ZM114.717 44.0527L114.597 44.0889L114.597 44.0889L114.717 44.0527ZM114.417 40.8393L114.542 40.8409V40.8393H114.417ZM114.417 40.8392L114.292 40.8377V40.8392H114.417ZM114.418 40.8301L114.543 40.8317V40.8301H114.418ZM114.418 40.83L114.293 40.8283V40.83H114.418ZM114.165 38.2722L114.281 38.2244L114.281 38.2242L114.165 38.2722ZM112.52 36.2668L112.607 36.1771L112.604 36.1746L112.52 36.2668ZM112.52 36.2666L112.604 36.1744L112.6 36.1706L112.52 36.2666ZM112.52 36.2666L112.432 36.3564L112.44 36.3626L112.52 36.2666ZM110.465 33.7968L110.354 33.8557L110.354 33.8558L110.465 33.7968ZM109.543 30.7083L109.666 30.6853L109.666 30.6852L109.543 30.7083ZM109.542 30.7007L109.665 30.6776L109.663 30.6712L109.542 30.7007ZM109.542 30.7005L109.419 30.7234L109.42 30.7299L109.542 30.7005ZM108.79 28.2364L108.686 28.3059L108.686 28.306L108.79 28.2364ZM106.792 26.5961L106.723 26.7001L106.724 26.701L106.792 26.5961ZM106.792 26.596L106.861 26.492L106.859 26.4908L106.792 26.596ZM106.791 26.5955L106.723 26.7004L106.724 26.7007L106.791 26.5955ZM104.287 24.5686L104.191 24.6479L104.191 24.648L104.287 24.5686ZM102.784 21.7198L102.9 21.6734L102.9 21.6734L102.784 21.7198ZM102.782 21.7141L102.665 21.7602L102.665 21.7605L102.782 21.7141ZM102.78 21.7114L102.897 21.6652L102.897 21.6649L102.78 21.7114ZM102.78 21.7113L102.664 21.7576L102.664 21.7577L102.78 21.7113ZM101.563 19.4385L101.651 19.3501L101.651 19.35L101.563 19.4385ZM99.2936 18.2217L99.2471 18.3377L99.2471 18.3377L99.2936 18.2217ZM99.2874 18.2192L99.3338 18.1031L99.3337 18.1031L99.2874 18.2192ZM96.4329 16.7141L96.3535 16.8106L96.3536 16.8107L96.4329 16.7141ZM94.4067 14.2108L94.5116 14.1428L94.5112 14.1423L94.4067 14.2108ZM94.406 14.2098L94.3011 14.2777L94.3015 14.2783L94.406 14.2098ZM92.7658 12.2107L92.8354 12.1069L92.8353 12.1069L92.7658 12.2107ZM90.3001 11.4589L90.2772 11.5818L90.2772 11.5818L90.3001 11.4589ZM87.204 10.5355L87.263 10.4253L87.263 10.4253L87.204 10.5355ZM84.7349 8.48093L84.8245 8.39375L84.822 8.39125L84.7349 8.48093ZM84.7348 8.48082L84.6387 8.56174L84.6477 8.57051L84.7348 8.48082ZM84.7347 8.48074L84.8306 8.40002L84.8244 8.39364L84.7347 8.48074ZM82.7293 6.83551L82.6814 6.95097L82.6814 6.95098L82.7293 6.83551ZM80.1707 6.5825L80.172 6.7075L80.1725 6.70749L80.1707 6.5825ZM80.0436 6.58386L80.0423 6.45886L80.0423 6.45886L80.0436 6.58386ZM76.9488 6.28376L76.9125 6.40339L76.9126 6.40339L76.9488 6.28376ZM74.1385 4.762L74.2092 4.65892L74.2092 4.65891L74.1385 4.762ZM74.1315 4.75716L74.0606 4.86014L74.0608 4.86026L74.1315 4.75716ZM74.1302 4.7563L74.2011 4.65332L74.201 4.65326L74.1302 4.7563ZM71.833 3.53432L71.8087 3.65693L71.8087 3.65693L71.833 3.53432ZM69.2858 3.78804L69.2597 3.66579L69.2597 3.66579L69.2858 3.78804ZM66.0554 4.12752L66.0433 4.25193L66.0433 4.25193L66.0554 4.12752ZM63.0014 3.18223L63.0507 3.06737L63.0503 3.06722L63.0014 3.18223ZM63.0008 3.18197L62.9515 3.29685L62.9518 3.29698L63.0008 3.18197ZM6.54499 59.7854V59.9104H6.66836L6.66998 59.7871L6.54499 59.7854ZM6.54029 59.7854V59.6604H6.41529V59.7854H6.54029ZM6.54029 61.2148H6.41529V61.3398H6.54029V61.2148ZM6.54499 61.2148L6.66998 61.2132L6.66837 61.0898H6.54499V61.2148ZM7.97457 61.2148V61.0898H7.84787L7.84958 61.2165L7.97457 61.2148ZM11.8598 61.2148V61.3398H11.9848V61.2148H11.8598ZM112.311 61.2148L112.436 61.2165L112.437 61.0898H112.311V61.2148ZM108.42 61.2148V61.0898H108.297L108.295 61.213L108.42 61.2148ZM108.42 59.7854L108.295 59.7873L108.297 59.9104H108.42V59.7854ZM112.311 59.7854V59.9104H112.437L112.436 59.7838L112.311 59.7854ZM7.97456 59.7854L7.84957 59.7838L7.84786 59.9104H7.97456V59.7854ZM11.8598 59.7854H11.9848V59.6604H11.8598V59.7854ZM60.5 0.875C59.4285 0.875 58.3893 1.32314 57.3854 1.7541L57.484 1.98383C58.4987 1.54823 59.4893 1.125 60.5 1.125V0.875ZM63.6144 1.75396C62.6105 1.32305 61.5714 0.875 60.5 0.875V1.125C61.5106 1.125 62.5011 1.54814 63.5157 1.98369L63.6144 1.75396ZM66.2069 2.58086C65.3483 2.49707 64.4946 2.13183 63.6144 1.75396L63.5157 1.98369C64.3878 2.35803 65.2782 2.74142 66.1826 2.82968L66.2069 2.58086ZM66.6478 2.60099C66.4998 2.60099 66.3523 2.59471 66.2066 2.58083L66.1829 2.82971C66.3373 2.84441 66.4928 2.85099 66.6478 2.85099V2.60099ZM68.9615 2.26762C68.173 2.43598 67.3977 2.60099 66.6478 2.60099V2.85099C67.4288 2.85099 68.2306 2.67932 69.0137 2.51211L68.9615 2.26762ZM71.2969 1.93204C70.5309 1.93204 69.7395 2.10153 68.9615 2.26762L69.0137 2.51211C69.7972 2.34482 70.5621 2.18204 71.2969 2.18204V1.93204ZM72.1349 2.0094C71.8587 1.95549 71.5797 1.93204 71.2969 1.93204V2.18204C71.5659 2.18204 71.8286 2.20433 72.087 2.25477L72.1349 2.0094ZM75.0114 3.47553C74.1113 2.85729 73.1816 2.21646 72.1352 2.00946L72.0867 2.2547C73.0734 2.44988 73.96 3.05661 74.8699 3.6816L75.0114 3.47553ZM77.3995 4.7962C76.5702 4.54491 75.802 4.01852 75.0114 3.47553L74.8699 3.6816C75.6531 4.21957 76.4538 4.77086 77.327 5.03546L77.3995 4.7962ZM79.5417 5.03311C78.7896 5.03311 78.0627 4.99709 77.3995 4.7962L77.327 5.03546C78.0276 5.24767 78.7857 5.28311 79.5417 5.28311V5.03311ZM80.1509 5.02812C79.9469 5.03062 79.7438 5.03311 79.5417 5.03311V5.28311C79.7456 5.28311 79.9502 5.2806 80.1539 5.2781L80.1509 5.02812ZM80.7631 5.0231C80.5592 5.0231 80.3546 5.02562 80.1509 5.02812L80.1539 5.2781C80.3579 5.2756 80.561 5.2731 80.7631 5.2731V5.0231ZM83.3238 5.39999C82.5338 5.07247 81.6481 5.0231 80.7631 5.0231V5.2731C81.6448 5.2731 82.4872 5.32379 83.2281 5.63093L83.3238 5.39999ZM85.8489 7.39708C85.0888 6.6153 84.3052 5.80675 83.3238 5.39999L83.2281 5.63093C84.1532 6.01436 84.9012 6.78099 85.6697 7.57136L85.8489 7.39708ZM87.9384 9.166C87.1708 8.75497 86.5187 8.08588 85.8489 7.39708L85.6697 7.57136C86.3333 8.25383 87.0123 8.9537 87.8203 9.38639L87.9384 9.166ZM90.5844 9.93055C89.6368 9.75399 88.7128 9.58074 87.9384 9.166L87.8203 9.38639C88.6352 9.82276 89.5996 10.0014 90.5386 10.1763L90.5844 9.93055ZM93.63 10.919C92.7547 10.333 91.6535 10.1297 90.5844 9.93055L90.5386 10.1763C91.6196 10.3777 92.6662 10.5746 93.4909 11.1268L93.63 10.919ZM95.7108 13.3648C95.1185 12.4512 94.5092 11.5078 93.63 10.9191L93.4909 11.1268C94.3195 11.6816 94.9022 12.5771 95.5011 13.5008L95.7108 13.3648ZM97.4199 15.5126C96.7449 14.9578 96.2343 14.1723 95.7108 13.3648L95.5011 13.5008C96.0198 14.3009 96.5507 15.1218 97.2611 15.7057L97.4199 15.5126ZM99.8635 16.7756C98.9688 16.4182 98.0972 16.0689 97.4198 15.5125L97.2612 15.7057C97.974 16.2912 98.8842 16.6536 99.7708 17.0077L99.8635 16.7756ZM102.662 18.3395C101.916 17.5933 100.874 17.1791 99.8635 16.7756L99.7708 17.0077C100.792 17.4158 101.782 17.8131 102.485 18.5163L102.662 18.3395ZM104.226 21.1379C103.822 20.1276 103.408 19.0857 102.662 18.3395L102.485 18.5163C103.188 19.2195 103.586 20.2091 103.994 21.2307L104.226 21.1379ZM105.489 23.5816C104.933 22.9042 104.583 22.0327 104.226 21.1379L103.994 21.2307C104.348 22.1173 104.71 23.0274 105.296 23.7403L105.489 23.5816ZM107.636 25.2905C106.829 24.7671 106.044 24.2565 105.489 23.5815L105.296 23.7403C105.88 24.4507 106.7 24.9816 107.5 25.5003L107.636 25.2905ZM110.082 27.3714C109.493 26.4923 108.55 25.8829 107.636 25.2905L107.5 25.5003C108.424 26.0992 109.319 26.6819 109.874 27.5105L110.082 27.3714ZM111.07 30.416C110.871 29.3471 110.668 28.2462 110.082 27.3714L109.874 27.5105C110.426 28.3347 110.623 29.381 110.824 30.4618L111.07 30.416ZM111.835 33.063C111.42 32.2884 111.247 31.364 111.07 30.416L110.824 30.4618C110.999 31.4012 111.178 32.3661 111.615 33.1811L111.835 33.063ZM113.605 35.1528C112.916 34.4828 112.246 33.8306 111.835 33.0631L111.615 33.1811C112.048 33.989 112.748 34.6682 113.43 35.332L113.605 35.1528ZM115.601 37.6768C115.194 36.6962 114.386 35.9127 113.605 35.1528L113.43 35.332C114.22 36.1003 114.987 36.8482 115.371 37.7727L115.601 37.6768ZM115.972 40.8488C115.986 39.7627 116.003 38.6459 115.601 37.6769L115.37 37.7726C115.748 38.6853 115.737 39.7472 115.722 40.8455L115.972 40.8488ZM116.205 43.6019C115.949 42.7573 115.96 41.8143 115.972 40.8488L115.722 40.8455C115.71 41.8023 115.696 42.786 115.965 43.6744L116.205 43.6019ZM117.525 45.9889C116.982 45.1986 116.456 44.4307 116.205 43.6019L115.965 43.6744C116.23 44.5471 116.781 45.3475 117.318 46.1304L117.525 45.9889ZM118.991 48.8655C118.784 47.8189 118.143 46.8891 117.525 45.9889L117.318 46.1304C117.943 47.0404 118.55 47.9272 118.745 48.914L118.991 48.8655ZM118.732 52.0393C118.959 50.9783 119.193 49.8896 118.991 48.8655L118.745 48.914C118.936 49.8784 118.717 50.9141 118.488 51.9871L118.732 52.0393ZM118.419 54.7939C118.334 53.911 118.53 52.9852 118.732 52.0393L118.488 51.9871C118.287 52.9246 118.08 53.8896 118.17 54.8181L118.419 54.7939ZM119.246 57.3854C118.868 56.5053 118.503 55.652 118.419 54.7939L118.17 54.8182C118.259 55.722 118.642 56.6122 119.016 57.484L119.246 57.3854ZM120.125 60.5C120.125 59.4285 119.677 58.3893 119.246 57.3854L119.016 57.484C119.452 58.4987 119.875 59.4893 119.875 60.5H120.125ZM119.246 63.6144C119.677 62.6105 120.125 61.5714 120.125 60.5H119.875C119.875 61.5106 119.452 62.5011 119.016 63.5157L119.246 63.6144ZM118.419 66.2069C118.503 65.3483 118.868 64.4946 119.246 63.6144L119.016 63.5157C118.642 64.3878 118.259 65.2782 118.17 66.1826L118.419 66.2069ZM118.732 68.9606C118.53 68.0148 118.334 67.0893 118.419 66.2068L118.17 66.1826C118.08 67.1106 118.287 68.0754 118.488 69.0128L118.732 68.9606ZM118.991 72.1352C119.193 71.1106 118.959 70.0216 118.732 68.9606L118.488 69.0128C118.717 70.0858 118.936 71.1219 118.745 72.0867L118.991 72.1352ZM117.524 75.0114C118.143 74.1113 118.784 73.1816 118.991 72.1352L118.745 72.0867C118.55 73.0734 117.943 73.96 117.318 74.8699L117.524 75.0114ZM116.204 77.3995C116.455 76.5702 116.981 75.802 117.524 75.0114L117.318 74.8699C116.78 75.6531 116.229 76.4538 115.965 77.327L116.204 77.3995ZM115.972 80.151C115.96 79.1861 115.948 78.2436 116.204 77.3995L115.965 77.3271C115.696 78.2149 115.71 79.198 115.722 80.1542L115.972 80.151ZM115.601 83.3246C116.003 82.355 115.986 81.2377 115.972 80.151L115.722 80.1542C115.736 81.2531 115.748 82.3156 115.37 83.2288L115.601 83.3246ZM113.604 85.8486C114.385 85.0887 115.194 84.3053 115.601 83.3246L115.37 83.2288C114.986 84.1532 114.22 84.9011 113.43 85.6694L113.604 85.8486ZM111.835 87.9383C112.246 87.1709 112.915 86.5186 113.604 85.8486L113.43 85.6694C112.747 86.3332 112.047 87.0124 111.614 87.8204L111.835 87.9383ZM111.069 90.5861C111.246 89.6379 111.419 88.7132 111.835 87.9384L111.614 87.8203C111.177 88.6356 110.999 89.6007 110.824 90.5403L111.069 90.5861ZM110.082 93.63C110.667 92.7554 110.87 91.6548 111.069 90.5861L110.824 90.5403C110.622 91.6209 110.425 92.667 109.874 93.4909L110.082 93.63ZM107.636 95.7108C108.549 95.1185 109.493 94.5091 110.082 93.63L109.874 93.4909C109.319 94.3195 108.423 94.9022 107.5 95.501L107.636 95.7108ZM105.487 97.4199C106.042 96.7449 106.828 96.2343 107.636 95.7108L107.5 95.501C106.699 96.0198 105.878 96.5507 105.294 97.2611L105.487 97.4199ZM104.225 99.863C104.582 98.9682 104.931 98.0969 105.487 97.4199L105.294 97.2611C104.709 97.9736 104.347 98.8837 103.993 99.7703L104.225 99.863ZM102.66 102.662C103.407 101.916 103.821 100.873 104.225 99.863L103.993 99.7703C103.585 100.792 103.187 101.782 102.484 102.485L102.66 102.662ZM99.8621 104.225C100.872 103.822 101.914 103.408 102.66 102.662L102.484 102.485C101.781 103.188 100.791 103.585 99.7694 103.993L99.8621 104.225ZM99.8553 104.228L99.8553 104.228L99.7763 103.991L99.7762 103.991L99.8553 104.228ZM97.4184 105.488C98.0958 104.932 98.9673 104.583 99.8621 104.225L99.7694 103.993C98.8828 104.347 97.9726 104.71 97.2597 105.295L97.4184 105.488ZM95.7094 107.636C96.2329 106.829 96.7435 106.043 97.4184 105.488L97.2597 105.295C96.5493 105.879 96.0183 106.7 95.4996 107.5L95.7094 107.636ZM93.6286 110.082C94.5077 109.494 95.1171 108.55 95.7094 107.636L95.4996 107.5C94.9008 108.424 94.3181 109.32 93.4895 109.875L93.6286 110.082ZM90.5847 111.07C91.6532 110.871 92.7536 110.668 93.6286 110.082L93.4895 109.875C92.6652 110.426 91.6193 110.623 90.5389 110.824L90.5847 111.07ZM87.9369 111.835C88.7121 111.42 89.6367 111.247 90.5847 111.07L90.5389 110.824C89.5995 110.999 88.6345 111.178 87.8189 111.615L87.9369 111.835ZM85.8476 113.604C86.5174 112.915 87.1696 112.246 87.9369 111.835L87.8189 111.615C87.0111 112.047 86.332 112.747 85.6683 113.43L85.8476 113.604ZM83.3231 115.601C84.304 115.194 85.0875 114.386 85.8476 113.604L85.6683 113.43C84.8999 114.22 84.1519 114.986 83.2274 115.37L83.3231 115.601ZM80.7624 115.978C81.6474 115.978 82.5331 115.928 83.3231 115.601L83.2274 115.37C82.4865 115.677 81.6441 115.728 80.7624 115.728V115.978ZM80.1502 115.973C80.354 115.975 80.5587 115.978 80.7624 115.978V115.728C80.5605 115.728 80.3574 115.725 80.1533 115.723L80.1502 115.973ZM80.1515 115.973H80.1518V115.723H80.1515V115.973ZM80.1481 115.973L80.1497 115.973L80.1533 115.723L80.1517 115.723L80.1481 115.973ZM79.5395 115.968C79.7415 115.968 79.9446 115.97 80.1484 115.973L80.1514 115.723C79.9479 115.72 79.7433 115.718 79.5395 115.718V115.968ZM77.3981 116.205C78.062 116.004 78.7875 115.968 79.5395 115.968V115.718C78.7836 115.718 78.0268 115.753 77.3257 115.965L77.3981 116.205ZM75.0111 117.525C75.8013 116.982 76.5693 116.456 77.3981 116.205L77.3256 115.965C76.4529 116.23 75.6525 116.781 74.8696 117.318L75.0111 117.525ZM72.1345 118.991C73.1811 118.784 74.1109 118.143 75.0111 117.525L74.8696 117.318C73.9596 117.943 73.0728 118.55 72.086 118.745L72.1345 118.991ZM71.2969 119.068C71.5788 119.068 71.8586 119.045 72.1346 118.991L72.0859 118.745C71.8287 118.796 71.5654 118.818 71.2969 118.818V119.068ZM68.961 118.732C69.7389 118.898 70.5305 119.068 71.2969 119.068V118.818C70.5616 118.818 69.7967 118.655 69.0132 118.488L68.961 118.732ZM66.6478 118.399C67.3976 118.399 68.1726 118.564 68.961 118.732L69.0132 118.488C68.2302 118.321 67.4288 118.149 66.6478 118.149V118.399ZM66.2064 118.42C66.3525 118.405 66.4991 118.399 66.6478 118.399V118.149C66.4921 118.149 66.3371 118.156 66.1816 118.171L66.2064 118.42ZM63.6138 119.246C64.4942 118.868 65.3477 118.503 66.2061 118.42L66.1819 118.171C65.2777 118.259 64.3873 118.642 63.5152 119.017L63.6138 119.246ZM60.5 120.125C61.5712 120.125 62.6102 119.677 63.6138 119.246L63.5152 119.017C62.5008 119.452 61.5105 119.875 60.5 119.875V120.125ZM57.3864 119.246C58.39 119.677 59.4289 120.125 60.5 120.125V119.875C59.4896 119.875 58.4994 119.452 57.485 119.017L57.3864 119.246ZM57.3736 119.24L57.3737 119.24L57.4977 119.023L57.4976 119.023L57.3736 119.24ZM54.7932 118.42C55.652 118.503 56.5058 118.869 57.3863 119.246L57.4849 119.017C56.6126 118.642 55.722 118.259 54.8174 118.171L54.7932 118.42ZM54.3522 118.399C54.5002 118.399 54.6475 118.405 54.7928 118.42L54.8177 118.171C54.6629 118.156 54.5072 118.149 54.3522 118.149V118.399ZM52.0386 118.732C52.8271 118.564 53.6023 118.399 54.3522 118.399V118.149C53.5712 118.149 52.7695 118.321 51.9864 118.488L52.0386 118.732ZM52.0335 118.733L52.0336 118.733L51.9914 118.487L51.9912 118.487L52.0335 118.733ZM49.7031 119.068C50.4691 119.068 51.2605 118.898 52.0385 118.732L51.9863 118.488C51.2028 118.655 50.4379 118.818 49.7031 118.818V119.068ZM48.8648 118.991C49.1414 119.045 49.4205 119.068 49.7031 119.068V118.818C49.4339 118.818 49.1713 118.796 48.9133 118.745L48.8648 118.991ZM45.9892 117.525C46.8891 118.143 47.8186 118.784 48.8648 118.991L48.9133 118.745C47.9269 118.55 47.0404 117.944 46.1307 117.319L45.9892 117.525ZM43.6005 116.205C44.43 116.456 45.1985 116.982 45.9892 117.525L46.1307 117.319C45.3473 116.781 44.5464 116.23 43.6729 115.965L43.6005 116.205ZM41.4583 115.967C42.2104 115.967 42.9373 116.003 43.6004 116.204L43.6731 115.965C42.9725 115.752 42.2143 115.717 41.4583 115.717V115.967ZM40.851 115.972C41.0544 115.97 41.2569 115.967 41.4583 115.967V115.717C41.255 115.717 41.0508 115.72 40.8477 115.722L40.851 115.972ZM40.8492 115.972L40.851 115.972L40.8477 115.722L40.846 115.722L40.8492 115.972ZM40.8475 115.972L40.8492 115.972L40.846 115.722L40.8442 115.722L40.8475 115.972ZM40.2369 115.978C40.4402 115.978 40.6444 115.975 40.8475 115.972L40.8442 115.722C40.6408 115.725 40.4383 115.728 40.2369 115.728V115.978ZM37.6761 115.601C38.4662 115.928 39.3519 115.978 40.2369 115.978V115.728C39.3552 115.728 38.5128 115.677 37.7719 115.37L37.6761 115.601ZM35.1518 113.604C35.9118 114.385 36.6951 115.194 37.6761 115.601L37.7719 115.37C36.8472 114.986 36.0993 114.22 35.3311 113.43L35.1518 113.604ZM33.0617 111.835C33.8295 112.246 34.4818 112.915 35.1518 113.604L35.3311 113.43C34.6672 112.747 33.988 112.047 33.1796 111.614L33.0617 111.835ZM30.4147 111.069C31.3626 111.246 32.2869 111.42 33.0616 111.835L33.1797 111.614C32.3646 111.177 31.3999 110.999 30.4605 110.824L30.4147 111.069ZM27.37 110.081C28.2451 110.667 29.3459 110.87 30.4147 111.069L30.4605 110.824C29.3798 110.622 28.3336 110.425 27.5091 109.873L27.37 110.081ZM25.2889 107.635C25.8813 108.549 26.4907 109.492 27.37 110.081L27.5091 109.873C26.6804 109.318 26.0976 108.423 25.4987 107.499L25.2889 107.635ZM23.5801 105.487C24.255 106.042 24.7655 106.827 25.2889 107.635L25.4987 107.499C24.98 106.699 24.4492 105.878 23.7389 105.294L23.5801 105.487ZM21.1373 104.225C22.0317 104.582 22.903 104.931 23.5802 105.487L23.7388 105.294C23.0262 104.709 22.1163 104.346 21.23 103.992L21.1373 104.225ZM18.3381 102.66C19.0845 103.407 20.1267 103.821 21.1373 104.225L21.23 103.992C20.2082 103.584 19.2183 103.187 18.5149 102.484L18.3381 102.66ZM16.7743 99.8621C17.1778 100.872 17.5919 101.914 18.3381 102.66L18.5149 102.484C17.8117 101.781 17.4144 100.791 17.0064 99.7694L16.7743 99.8621ZM15.5111 97.4184C16.0675 98.0956 16.4168 98.9672 16.7743 99.8621L17.0064 99.7694C16.6523 98.8826 16.2898 97.9723 15.7043 97.2597L15.5111 97.4184ZM13.3637 95.7095C14.171 96.2329 14.9564 96.7435 15.5111 97.4184L15.7043 97.2597C15.1204 96.5493 14.2997 96.0184 13.4997 95.4997L13.3637 95.7095ZM13.3603 95.7071L13.3604 95.7072L13.5031 95.502L13.5031 95.5019L13.3603 95.7071ZM10.9183 93.6286C11.507 94.5077 12.4502 95.1171 13.3637 95.7094L13.4997 95.4997C12.5762 94.9008 11.6809 94.3181 11.1261 93.4895L10.9183 93.6286ZM9.92986 90.584C10.1291 91.6529 10.3324 92.7538 10.9183 93.6286L11.1261 93.4895C10.574 92.6653 10.3771 91.619 10.1756 90.5382L9.92986 90.584ZM9.16459 87.937C9.57976 88.7116 9.75316 89.636 9.92986 90.584L10.1756 90.5382C10.0005 89.5988 9.82177 88.6339 9.38494 87.8189L9.16459 87.937ZM7.39552 85.8472C8.08453 86.5172 8.75373 87.1694 9.16456 87.9369L9.38497 87.8189C8.95247 87.011 8.25247 86.3318 7.56981 85.668L7.39552 85.8472ZM7.39284 85.8446L7.39289 85.8446L7.57245 85.6706L7.5724 85.6706L7.39284 85.8446ZM5.39858 83.3232C5.80561 84.3038 6.61396 85.0873 7.39548 85.8472L7.56976 85.668C6.77966 84.8997 6.01317 84.1518 5.62948 83.2273L5.39858 83.3232ZM5.02773 80.1512C5.01361 81.2373 4.99723 82.3541 5.39854 83.3231L5.62952 83.2274C5.2515 82.3147 5.26343 81.2528 5.27771 80.1545L5.02773 80.1512ZM4.79549 77.3981C5.05146 78.2427 5.04027 79.1858 5.02773 80.1512L5.27771 80.1545C5.29014 79.1977 5.30399 78.214 5.03474 77.3256L4.79549 77.3981ZM3.47546 75.0111C4.01818 75.8013 4.54425 76.5693 4.79549 77.3981L5.03474 77.3256C4.7702 76.4529 4.21924 75.6525 3.68155 74.8696L3.47546 75.0111ZM2.00946 72.1345C2.21649 73.1811 2.8573 74.1109 3.47546 75.0111L3.68155 74.8696C3.05664 73.9596 2.44992 73.0728 2.2547 72.086L2.00946 72.1345ZM2.26787 68.9603C2.04131 70.0213 1.80689 71.11 2.00945 72.1345L2.25471 72.086C2.06396 71.1212 2.28323 70.0855 2.51236 69.0125L2.26787 68.9603ZM2.58085 66.2061C2.66643 67.0889 2.46985 68.0146 2.26787 68.9603L2.51236 69.0125C2.71254 68.0752 2.91967 67.1103 2.82969 66.1819L2.58085 66.2061ZM1.7541 63.6146C2.13192 64.4947 2.49709 65.348 2.58086 66.2061L2.82968 66.1818C2.74143 65.2779 2.35811 64.3878 1.98383 63.5159L1.7541 63.6146ZM0.875 60.5C0.875 61.5715 1.32314 62.6107 1.7541 63.6146L1.98383 63.5159C1.54823 62.5013 1.125 61.5107 1.125 60.5H0.875ZM1.7541 57.3854C1.32314 58.3893 0.875 59.4285 0.875 60.5H1.125C1.125 59.4893 1.54823 58.4987 1.98383 57.484L1.7541 57.3854ZM2.58086 54.7939C2.49709 55.652 2.13192 56.5053 1.7541 57.3854L1.98383 57.484C2.35812 56.6122 2.74143 55.722 2.82968 54.8182L2.58086 54.7939ZM2.26787 52.0394C2.46985 52.9853 2.66643 53.9111 2.58085 54.7939L2.82969 54.8181C2.91967 53.8897 2.71255 52.9247 2.51236 51.9872L2.26787 52.0394ZM2.00945 48.8648C1.80689 49.8893 2.04131 50.9782 2.26787 52.0394L2.51236 51.9872C2.28324 50.914 2.06396 49.8781 2.25471 48.9133L2.00945 48.8648ZM3.47553 45.9886C2.85729 46.8887 2.21646 47.8183 2.00946 48.8648L2.2547 48.9133C2.44988 47.9266 3.05661 47.04 3.6816 46.1301L3.47553 45.9886ZM4.7962 43.6005C4.54491 44.4298 4.01852 45.198 3.47553 45.9886L3.6816 46.1301C4.21957 45.3469 4.77086 44.5462 5.03546 43.673L4.7962 43.6005ZM5.02793 40.849C5.04049 41.8139 5.05169 42.7564 4.79619 43.6005L5.03547 43.6729C5.30422 42.7851 5.29036 41.802 5.27791 40.8458L5.02793 40.849ZM5.39927 37.6754C4.99736 38.645 5.01378 39.7623 5.02793 40.849L5.27791 40.8458C5.2636 39.7469 5.25165 38.6844 5.63022 37.7712L5.39927 37.6754ZM7.39619 35.1514C6.61467 35.9113 5.80632 36.6947 5.39929 37.6754L5.63019 37.7712C6.01389 36.8468 6.78037 36.0989 7.57048 35.3306L7.39619 35.1514ZM9.16528 33.0617C8.75444 33.8291 8.08521 34.4814 7.39619 35.1514L7.57048 35.3306C8.25316 34.6668 8.95318 33.9876 9.38569 33.1796L9.16528 33.0617ZM9.93064 30.4139C9.75397 31.362 9.58058 32.2867 9.16531 33.0616L9.38566 33.1797C9.8226 32.3644 10.0013 31.3993 10.1764 30.4596L9.93064 30.4139ZM10.9183 27.37C10.3329 28.2446 10.1298 29.3452 9.93064 30.4139L10.1764 30.4596C10.3778 29.379 10.5745 28.333 11.1261 27.5091L10.9183 27.37ZM13.3644 25.2892C12.4506 25.8815 11.507 26.4909 10.9183 27.37L11.1261 27.5091C11.6809 26.6805 12.5765 26.0978 13.5004 25.499L13.3644 25.2892ZM15.5126 23.5801C14.9578 24.2551 14.1721 24.7657 13.3644 25.2892L13.5004 25.499C14.3007 24.9802 15.1218 24.4493 15.7057 23.7389L15.5126 23.5801ZM16.7752 21.137C16.418 22.0318 16.0688 22.9031 15.5126 23.5801L15.7057 23.7388C16.2911 23.0264 16.6534 22.1163 17.0074 21.2297L16.7752 21.137ZM18.3395 18.3381C17.5929 19.0844 17.1787 20.1265 16.7752 21.137L17.0074 21.2297C17.4154 20.208 17.8126 19.2181 18.5163 18.5149L18.3395 18.3381ZM21.1379 16.7746C20.1275 17.1779 19.0857 17.5919 18.3395 18.3381L18.5163 18.5149C19.2195 17.8117 20.209 17.4146 21.2306 17.0067L21.1379 16.7746ZM23.5816 15.5118C22.9042 16.0682 22.0326 16.4173 21.1379 16.7746L21.2306 17.0067C22.1172 16.6527 23.0274 16.2905 23.7403 15.705L23.5816 15.5118ZM25.2906 13.3637C24.7671 14.1714 24.2565 14.9571 23.5815 15.5118L23.7403 15.705C24.4507 15.1211 24.9817 14.3 25.5004 13.4997L25.2906 13.3637ZM27.3714 10.9176C26.4923 11.5063 25.8829 12.4499 25.2906 13.3637L25.5004 13.4997C26.0992 12.5758 26.6819 11.6802 27.5105 11.1254L27.3714 10.9176ZM30.4162 9.92986C29.3473 10.1289 28.2466 10.3321 27.3714 10.9176L27.5105 11.1254C28.3351 10.5737 29.3812 10.3769 30.4619 10.1756L30.4162 9.92986ZM33.0631 9.16528C32.2881 9.58011 31.3639 9.75335 30.4162 9.92986L30.4619 10.1756C31.4011 10.0007 32.3657 9.82213 33.1811 9.38569L33.0631 9.16528ZM35.152 7.39649C34.4823 8.08524 33.8302 8.75429 33.0631 9.1653L33.1811 9.38567C33.9887 8.953 34.6677 8.2532 35.3312 7.57077L35.152 7.39649ZM37.6769 5.39928C36.6958 5.80606 35.9122 6.61467 35.152 7.39649L35.3312 7.57077C36.0998 6.78036 36.8479 6.01366 37.7726 5.63021L37.6769 5.39928ZM40.2376 5.02239C39.3526 5.02239 38.4669 5.07176 37.6769 5.39927L37.7726 5.63021C38.5135 5.32308 39.3559 5.27239 40.2376 5.27239V5.02239ZM40.8501 5.02776C40.6462 5.02508 40.4414 5.02239 40.2376 5.02239V5.27239C40.4395 5.27239 40.6426 5.27505 40.8468 5.27773L40.8501 5.02776ZM40.8516 5.02779L40.8516 5.02778L40.8453 5.27771L40.8454 5.27771L40.8516 5.02779ZM41.4605 5.03311C41.258 5.03311 41.0545 5.03044 40.8501 5.02776L40.8469 5.27774C41.0509 5.28042 41.2561 5.28311 41.4605 5.28311V5.03311ZM43.6019 4.79547C42.938 4.99639 42.2124 5.03311 41.4605 5.03311V5.28311C42.2166 5.28311 42.9732 5.24693 43.6743 5.03475L43.6019 4.79547ZM45.9896 3.47529C45.1991 4.01823 44.431 4.5445 43.6019 4.79548L43.6744 5.03475C44.5473 4.77047 45.3479 4.21928 46.1311 3.68137L45.9896 3.47529ZM48.8655 2.00946C47.8191 2.21644 46.8895 2.8572 45.9896 3.47529L46.1311 3.68137C47.0409 3.05653 47.9274 2.44987 48.914 2.2547L48.8655 2.00946ZM49.7031 1.93204C49.421 1.93204 49.1413 1.95548 48.8657 2.00941L48.9137 2.25475C49.1714 2.20433 49.4348 2.18204 49.7031 2.18204V1.93204ZM52.039 2.26768C51.2611 2.10157 50.4695 1.93204 49.7031 1.93204V2.18204C50.4384 2.18204 51.2033 2.34486 51.9868 2.51216L52.039 2.26768ZM54.3522 2.60099C53.6024 2.60099 52.8274 2.43602 52.039 2.26768L51.9868 2.51216C52.7698 2.67936 53.5712 2.85099 54.3522 2.85099V2.60099ZM54.7942 2.58083C54.6477 2.59471 54.5009 2.60099 54.3522 2.60099V2.85099C54.5079 2.85099 54.6627 2.84441 54.8178 2.82971L54.7942 2.58083ZM57.3854 1.7541C56.5053 2.13192 55.652 2.49709 54.7939 2.58086L54.8182 2.82968C55.722 2.74143 56.6122 2.35812 57.484 1.98383L57.3854 1.7541ZM60.5 2.5544C61.2139 2.5544 62.0373 2.90496 62.9454 3.29425L63.0439 3.06448C62.1526 2.6824 61.2765 2.3044 60.5 2.3044V2.5544ZM58.0546 3.29427C58.9627 2.90497 59.7861 2.5544 60.5 2.5544V2.3044C59.7236 2.3044 58.8474 2.6824 57.9561 3.06449L58.0546 3.29427ZM58.0485 3.29687L58.0546 3.29427L57.9561 3.06448L57.9501 3.06708L58.0485 3.29687ZM54.9568 4.25193C56.082 4.14255 57.0915 3.70806 58.0486 3.29682L57.95 3.06712C56.9875 3.48065 56.0129 3.89808 54.9326 4.0031L54.9568 4.25193ZM54.3522 4.28039C54.5582 4.28039 54.7617 4.27093 54.9568 4.25193L54.9326 4.0031C54.746 4.02127 54.5507 4.03039 54.3522 4.03039V4.28039ZM51.6882 3.91028C52.5332 4.0907 53.4207 4.28039 54.3522 4.28039V4.03039C53.4512 4.03039 52.5891 3.847 51.7404 3.66579L51.6882 3.91028ZM51.686 3.90982L51.6881 3.91027L51.7404 3.6658L51.7383 3.66534L51.686 3.90982ZM49.7031 3.61143C50.2862 3.61143 50.9568 3.75408 51.686 3.90983L51.7383 3.66534C51.0168 3.51125 50.3181 3.36143 49.7031 3.36143V3.61143ZM49.1913 3.65695C49.345 3.62662 49.5118 3.61143 49.7031 3.61143V3.36143C49.4984 3.36143 49.3151 3.37769 49.1429 3.41168L49.1913 3.65695ZM46.9401 4.85949C47.7553 4.29968 48.4946 3.79519 49.1914 3.65693L49.1427 3.41171C48.3844 3.56218 47.5986 4.10401 46.7986 4.65341L46.9401 4.85949ZM44.0882 6.40267C45.1732 6.07384 46.0805 5.45038 46.9401 4.85946L46.7985 4.65344C45.9343 5.24749 45.0577 5.84759 44.0157 6.16342L44.0882 6.40267ZM41.4605 6.71251C42.2483 6.71251 43.1857 6.67629 44.0882 6.40267L44.0157 6.16342C43.1501 6.42582 42.2436 6.46251 41.4605 6.46251V6.71251ZM40.8285 6.70678C41.0385 6.70963 41.2494 6.71251 41.4605 6.71251V6.46251C41.2514 6.46251 41.0422 6.45966 40.8319 6.4568L40.8285 6.70678ZM40.8284 6.70678L40.8285 6.70678L40.832 6.4568L40.8319 6.4568L40.8284 6.70678ZM40.7094 6.70543L40.8287 6.70678L40.8315 6.4568L40.7122 6.45545L40.7094 6.70543ZM40.2376 6.70179C40.3938 6.70179 40.5511 6.7036 40.7093 6.70543L40.7122 6.45545C40.5542 6.45362 40.3955 6.45179 40.2376 6.45179V6.70179ZM38.3202 6.95095C38.8416 6.73449 39.5387 6.70179 40.2376 6.70179V6.45179C39.5429 6.45179 38.7978 6.48197 38.2243 6.72006L38.3202 6.95095ZM36.3564 8.56712C36.6978 8.21573 37.0252 7.87913 37.3516 7.59499C37.6781 7.31074 37.9974 7.08472 38.3201 6.95098L38.2244 6.72003C37.8659 6.8686 37.5231 7.11427 37.1874 7.40643C36.8517 7.6987 36.5169 8.0432 36.1771 8.39292L36.3564 8.56712ZM36.3581 8.5654L36.3582 8.56531L36.1754 8.39473L36.1753 8.39482L36.3581 8.5654ZM36.3564 8.56718L36.3564 8.56713L36.177 8.39309L36.1769 8.39314L36.3564 8.56718ZM33.8565 10.645C34.8589 10.1084 35.6272 9.31706 36.3563 8.5673L36.177 8.39301C35.4439 9.1469 34.7014 9.90918 33.7385 10.4246L33.8565 10.645ZM30.7243 11.5811C31.7565 11.3886 32.8462 11.1858 33.8565 10.645L33.7385 10.4246C32.7676 10.9443 31.7161 11.1418 30.6785 11.3353L30.7243 11.5811ZM30.7214 11.5816L30.7243 11.5811L30.6786 11.3353L30.6757 11.3358L30.7214 11.5816ZM28.3053 12.3132C28.5915 12.1216 28.9536 11.9827 29.3686 11.8695C29.7834 11.7562 30.2426 11.6707 30.7214 11.5816L30.6757 11.3358C30.1992 11.4245 29.7294 11.5118 29.3028 11.6283C28.8764 11.7447 28.4847 11.8922 28.1662 12.1054L28.3053 12.3132ZM26.701 14.2761C26.9667 13.8661 27.2216 13.4729 27.4854 13.1313C27.7493 12.7896 28.0171 12.5063 28.3053 12.3132L28.1661 12.1055C27.8457 12.3202 27.5587 12.6274 27.2875 12.9785C27.0162 13.3298 26.7556 13.7321 26.4912 14.1401L26.701 14.2761ZM26.7001 14.2774L26.7001 14.2774L26.4921 14.1387L26.4921 14.1388L26.7001 14.2774ZM26.7001 14.2775L26.7001 14.2774L26.4921 14.1388L26.4921 14.1388L26.7001 14.2775ZM26.7005 14.2768L26.7011 14.2759L26.4911 14.1403L26.4905 14.1412L26.7005 14.2768ZM26.6996 14.2783L26.7003 14.2772L26.4907 14.1409L26.49 14.1419L26.6996 14.2783ZM24.6479 16.8092C25.529 16.0856 26.1297 15.1573 26.6997 14.2781L26.4899 14.1421C25.9168 15.0261 25.3356 15.9209 24.4893 16.616L24.6479 16.8092ZM21.7625 18.333C22.7369 17.9441 23.765 17.5348 24.648 16.8092L24.4892 16.6161C23.641 17.3131 22.6495 17.7098 21.6698 18.1009L21.7625 18.333ZM21.7604 18.3339L21.7625 18.3331L21.6699 18.1009L21.6678 18.1017L21.7604 18.3339ZM21.7543 18.3363L21.7605 18.3338L21.6677 18.1017L21.6615 18.1042L21.7543 18.3363ZM19.5268 19.5255C19.7713 19.2814 20.0996 19.0745 20.4844 18.8824C20.8691 18.6905 21.3023 18.5171 21.7543 18.3363L21.6615 18.1042C21.2117 18.2841 20.7684 18.4614 20.3728 18.6587C19.9774 18.8561 19.622 19.0772 19.3502 19.3486L19.5268 19.5255ZM18.3378 21.7528C18.5186 21.3008 18.692 20.8676 18.8839 20.483C19.0759 20.0982 19.2828 19.7698 19.527 19.5254L19.3501 19.3487C19.0786 19.6205 18.8575 19.976 18.6602 20.3713C18.4628 20.7669 18.2856 21.2102 18.1057 21.66L18.3378 21.7528ZM18.3353 21.7591L18.3378 21.7529L18.1057 21.66L18.1032 21.6662L18.3353 21.7591ZM16.81 24.6465C17.536 23.7622 17.9461 22.7341 18.3353 21.759L18.1031 21.6663C17.7119 22.6466 17.3144 23.6382 16.6168 24.4878L16.81 24.6465ZM14.2788 26.6982C15.158 26.1282 16.0863 25.5276 16.81 24.6465L16.6168 24.4878C15.9216 25.3342 15.0269 25.9154 14.1429 26.4885L14.2788 26.6982ZM14.2778 26.6989L14.2789 26.6982L14.1428 26.4885L14.1417 26.4892L14.2778 26.6989ZM12.3146 28.3045C12.5079 28.0158 12.7911 27.7478 13.1329 27.4837C13.4745 27.2197 13.8676 26.9647 14.2778 26.6989L14.1418 26.4891C13.7336 26.7536 13.3313 27.0143 12.98 27.2859C12.6288 27.5572 12.3217 27.8445 12.1069 28.1654L12.3146 28.3045ZM11.5818 30.7228C11.671 30.2432 11.7567 29.7836 11.8702 29.3686C11.9837 28.9533 12.1228 28.5911 12.3146 28.3045L12.1069 28.1654C11.8935 28.4842 11.7457 28.876 11.629 29.3027C11.5124 29.7295 11.4248 30.1998 11.336 30.6771L11.5818 30.7228ZM11.5802 30.7317L11.5818 30.723L11.336 30.677L11.3344 30.6857L11.5802 30.7317ZM10.6465 33.855C11.1851 32.8475 11.3875 31.7611 11.5802 30.7317L11.3344 30.6857C11.1407 31.7206 10.9436 32.769 10.426 33.7371L10.6465 33.855ZM8.56805 36.3548C9.31781 35.6257 10.1091 34.8575 10.6464 33.8551L10.4261 33.737C9.90995 34.6999 9.14763 35.4425 8.39376 36.1756L8.56805 36.3548ZM8.56787 36.355L8.56792 36.3549L8.39388 36.1755L8.39384 36.1755L8.56787 36.355ZM8.56606 36.3567L8.56614 36.3566L8.39556 36.1739L8.39548 36.1739L8.56606 36.3567ZM6.95095 38.3188C7.22194 37.6673 7.86018 37.0425 8.56787 36.355L8.39367 36.1757C7.69912 36.8504 7.01517 37.5134 6.72012 38.2228L6.95095 38.3188ZM6.70752 40.8277C6.70107 40.3409 6.69497 39.874 6.72465 39.4456C6.75435 39.0169 6.81946 38.6355 6.95098 38.3187L6.72009 38.2228C6.57359 38.5757 6.50576 38.9879 6.47525 39.4283C6.44472 39.869 6.45113 40.3466 6.45754 40.831L6.70752 40.8277ZM6.70755 40.8301L6.70752 40.8278L6.45754 40.831L6.45757 40.8333L6.70755 40.8301ZM6.40342 44.0875C6.73628 42.9891 6.72108 41.8808 6.70755 40.8301L6.45757 40.8333C6.47118 41.8896 6.48405 42.9594 6.16416 44.015L6.40342 44.0875ZM4.86204 46.9367C5.45164 46.0772 6.07418 45.1714 6.40339 44.0876L6.16418 44.0149C5.84796 45.0559 5.24873 45.9311 4.65589 46.7953L4.86204 46.9367ZM4.85994 46.9397L4.85997 46.9396L4.65796 46.7924L4.65794 46.7924L4.85994 46.9397ZM4.86021 46.9394L4.86196 46.9368L4.65592 46.7952L4.65417 46.7978L4.86021 46.9394ZM4.8594 46.9406L4.86028 46.9393L4.65411 46.7979L4.65323 46.7992L4.8594 46.9406ZM3.65696 49.1913C3.79515 48.4942 4.29983 47.7554 4.85936 46.9406L4.65327 46.7991C4.10424 47.5986 3.56213 48.3841 3.41173 49.1427L3.65696 49.1913ZM3.90911 51.6851C3.80818 51.2113 3.71143 50.7567 3.65684 50.3329C3.60222 49.9089 3.59113 49.5246 3.65698 49.1913L3.41172 49.1428C3.33831 49.5144 3.35279 49.9294 3.40889 50.3649C3.46503 50.8006 3.56416 51.2657 3.66459 51.7372L3.90911 51.6851ZM3.90962 51.6875L3.90912 51.6852L3.66458 51.7371L3.66508 51.7395L3.90962 51.6875ZM4.25196 54.956C4.36347 53.8074 4.13057 52.7196 3.90958 51.6873L3.66512 51.7397C3.88724 52.7772 4.11032 53.8278 4.00313 54.9319L4.25196 54.956ZM3.29685 58.0486C3.7081 57.0914 4.14258 56.0812 4.25196 54.956L4.00313 54.9318C3.89811 56.0122 3.48066 56.9875 3.06715 57.9499L3.29685 58.0486ZM3.29428 58.0546L3.29689 58.0485L3.06711 57.95L3.06451 57.9561L3.29428 58.0546ZM2.55442 60.5C2.55442 59.7861 2.90499 58.9627 3.29428 58.0546L3.06451 57.9561C2.68243 58.8474 2.30442 59.7235 2.30442 60.5H2.55442ZM3.29429 62.9454C2.90499 62.0373 2.55442 61.2139 2.55442 60.5H2.30442C2.30442 61.2765 2.68243 62.1526 3.06452 63.0439L3.29429 62.9454ZM3.2969 62.9515L3.29431 62.9454L3.06451 63.0439L3.0671 63.0499L3.2969 62.9515ZM4.25196 66.0432C4.14257 64.9188 3.70809 63.9086 3.29685 62.9514L3.06715 63.0501C3.48067 64.0126 3.89811 64.9878 4.00313 66.0674L4.25196 66.0432ZM3.90958 69.312C4.13058 68.2804 4.36347 67.1919 4.25196 66.0433L4.00313 66.0674C4.11032 67.1715 3.88723 68.2228 3.66512 69.2596L3.90958 69.312ZM3.90851 69.317L3.90962 69.3118L3.66508 69.2598L3.66396 69.265L3.90851 69.317ZM3.65698 71.8088C3.59119 71.4754 3.6022 71.0915 3.65668 70.668C3.71112 70.2448 3.80768 69.7907 3.9085 69.317L3.66397 69.265C3.56366 69.7363 3.46472 70.2008 3.40872 70.6361C3.35276 71.0711 3.33839 71.4857 3.41171 71.8572L3.65698 71.8088ZM4.85555 74.0542C4.29791 73.2411 3.79488 72.5037 3.65696 71.8086L3.41174 71.8573C3.56185 72.6138 4.10221 73.3978 4.64938 74.1956L4.85555 74.0542ZM4.85962 74.0601L4.85561 74.0542L4.64933 74.1955L4.65334 74.2013L4.85962 74.0601ZM6.40269 76.9111C6.07386 75.8269 5.45038 74.9202 4.85952 74.0599L4.65344 74.2015C5.24754 75.0665 5.84763 75.9423 6.16345 76.9836L6.40269 76.9111ZM6.70763 80.1623C6.72043 79.1138 6.73485 78.0071 6.4027 76.9111L6.16345 76.9836C6.48265 78.0369 6.47052 79.1051 6.45765 80.1593L6.70763 80.1623ZM6.70752 80.1714L6.70763 80.1623L6.45765 80.1593L6.45754 80.1684L6.70752 80.1714ZM6.95031 82.68C6.81911 82.3631 6.75418 81.9818 6.72457 81.5533C6.69497 81.1251 6.70107 80.6584 6.70752 80.1716L6.45754 80.1683C6.45113 80.6527 6.44472 81.1301 6.47516 81.5706C6.50558 82.0108 6.57323 82.4228 6.71933 82.7756L6.95031 82.68ZM8.5672 84.6444C7.85942 83.9561 7.22124 83.332 6.95025 82.6798L6.71939 82.7758C7.01444 83.4858 7.69844 84.1482 8.39291 84.8236L8.5672 84.6444ZM10.6457 87.1442C10.1084 86.1417 9.31704 85.3728 8.56715 84.6443L8.39295 84.8236C9.14679 85.556 9.9092 86.2993 10.4254 87.2623L10.6457 87.1442ZM11.5797 90.2689C11.3869 89.2384 11.1846 88.1514 10.6457 87.1443L10.4253 87.2622C10.9431 88.23 11.1402 89.2788 11.3339 90.3148L11.5797 90.2689ZM11.5811 90.2763L11.5797 90.2689L11.3339 90.3148L11.3353 90.3223L11.5811 90.2763ZM11.5811 90.2766L11.5811 90.2763L11.3353 90.3224L11.3354 90.3227L11.5811 90.2766ZM12.3139 92.6947C12.1218 92.4079 11.9827 92.0455 11.8693 91.6303C11.7559 91.2154 11.6703 90.756 11.5811 90.2768L11.3354 90.3225C11.4241 90.7994 11.5115 91.2694 11.6281 91.6962C11.7446 92.1228 11.8924 92.5147 12.1062 92.8339L12.3139 92.6947ZM14.2714 94.2967C13.8623 94.0312 13.4702 93.7767 13.1295 93.5132C12.7887 93.2497 12.5064 92.9824 12.314 92.6948L12.1062 92.8338C12.3202 93.1537 12.6264 93.4402 12.9766 93.711C13.3269 93.9819 13.7282 94.2422 14.1353 94.5064L14.2714 94.2967ZM14.2772 94.3004L14.2715 94.2967L14.1353 94.5064L14.141 94.5101L14.2772 94.3004ZM16.8092 96.3528C16.0846 95.4707 15.1566 94.8699 14.277 94.3003L14.1411 94.5102C15.0254 95.0827 15.9199 95.664 16.6161 96.5115L16.8092 96.3528ZM18.3304 99.2291C17.9418 98.258 17.5328 97.2332 16.8092 96.3528L16.6161 96.5115C17.3112 97.3574 17.7076 98.3456 18.0983 99.322L18.3304 99.2291ZM18.333 99.2361L18.333 99.236L18.0958 99.3151L18.0958 99.3152L18.333 99.2361ZM18.3346 99.2395L18.3305 99.2292L18.0983 99.322L18.1025 99.3323L18.3346 99.2395ZM19.5255 101.473C19.2808 101.228 19.0735 100.899 18.8813 100.513C18.6891 100.128 18.5155 99.6931 18.3346 99.2396L18.1024 99.3322C18.2824 99.7835 18.4598 100.228 18.6575 100.625C18.8551 101.022 19.0766 101.378 19.3487 101.65L19.5255 101.473ZM21.7528 102.662C21.3008 102.481 20.8676 102.308 20.483 102.116C20.0982 101.924 19.7699 101.717 19.5254 101.473L19.3488 101.65C19.6205 101.921 19.976 102.142 20.3713 102.34C20.7669 102.537 21.2102 102.714 21.6599 102.894L21.7528 102.662ZM21.7592 102.665L21.7529 102.662L21.6598 102.894L21.6661 102.897L21.7592 102.665ZM21.7612 102.666L21.7592 102.665L21.6661 102.897L21.6681 102.898L21.7612 102.666ZM24.6466 104.19C23.7636 103.464 22.7355 103.054 21.761 102.665L21.6683 102.898C22.6481 103.289 23.6395 103.685 24.4878 104.383L24.6466 104.19ZM26.6983 106.721C26.1283 105.842 25.5276 104.914 24.6465 104.19L24.4878 104.383C25.3342 105.078 25.9154 105.973 26.4885 106.857L26.6983 106.721ZM26.6988 106.722L26.6981 106.721L26.4887 106.857L26.4894 106.859L26.6988 106.722ZM26.6994 106.723L26.6988 106.722L26.4894 106.859L26.49 106.859L26.6994 106.723ZM28.3038 108.685C28.0156 108.493 27.7479 108.21 27.4839 107.868C27.2201 107.526 26.9653 107.133 26.6996 106.723L26.4898 106.859C26.7542 107.267 27.0148 107.669 27.2861 108.021C27.5573 108.372 27.8443 108.679 28.1648 108.893L28.3038 108.685ZM30.7229 109.418C30.2436 109.329 29.7838 109.243 29.3685 109.13C28.953 109.016 28.5904 108.877 28.3038 108.685L28.1648 108.893C28.4836 109.107 28.8757 109.254 29.3026 109.371C29.7298 109.488 30.2002 109.575 30.6771 109.664L30.7229 109.418ZM30.7251 109.419L30.723 109.418L30.677 109.664L30.6791 109.664L30.7251 109.419ZM33.8551 110.354C32.8455 109.813 31.7565 109.611 30.725 109.419L30.6792 109.664C31.7162 109.858 32.7669 110.055 33.737 110.575L33.8551 110.354ZM36.3483 112.425C35.6212 111.678 34.8546 110.889 33.8551 110.354L33.7371 110.575C34.6971 111.089 35.4381 111.849 36.1692 112.6L36.3483 112.425ZM36.355 112.432L36.3484 112.425L36.1691 112.6L36.1757 112.606L36.355 112.432ZM38.3187 114.049C37.996 113.915 37.6767 113.689 37.3502 113.405C37.0238 113.12 36.6964 112.784 36.355 112.432L36.1757 112.606C36.5154 112.956 36.8502 113.301 37.186 113.593C37.5216 113.886 37.8645 114.131 38.2229 114.28L38.3187 114.049ZM40.2369 114.298C39.5381 114.298 38.8408 114.266 38.3187 114.049L38.2229 114.28C38.7971 114.518 39.5421 114.548 40.2369 114.548V114.298ZM40.8276 114.293C40.6295 114.295 40.4331 114.298 40.2369 114.298V114.548C40.4352 114.548 40.6334 114.545 40.8312 114.542L40.8276 114.293ZM41.4583 114.287C41.2481 114.287 41.0381 114.29 40.8277 114.293L40.8311 114.542C41.041 114.54 41.2498 114.537 41.4583 114.537V114.287ZM44.0875 114.597C43.1842 114.323 42.2468 114.287 41.4583 114.287V114.537C42.2423 114.537 43.1488 114.573 44.015 114.836L44.0875 114.597ZM46.9323 116.135C46.0742 115.546 45.1695 114.925 44.0875 114.597L44.015 114.836C45.0542 115.151 45.928 115.749 46.7909 116.341L46.9323 116.135ZM46.9392 116.14L46.9322 116.135L46.791 116.341L46.798 116.346L46.9392 116.14ZM46.9405 116.141L46.9391 116.14L46.7981 116.346L46.7995 116.347L46.9405 116.141ZM49.1914 117.343C48.4943 117.205 47.7555 116.7 46.9408 116.141L46.7993 116.347C47.5987 116.896 48.3841 117.438 49.1428 117.588L49.1914 117.343ZM49.7031 117.389C49.5111 117.389 49.3443 117.373 49.1914 117.343L49.1428 117.588C49.3144 117.622 49.4978 117.639 49.7031 117.639V117.389ZM51.6874 117.09C50.9581 117.246 50.2861 117.389 49.7031 117.389V117.639C50.3179 117.639 51.0181 117.488 51.7397 117.334L51.6874 117.09ZM54.3522 116.72C53.42 116.72 52.5325 116.909 51.6874 117.09L51.7396 117.334C52.5884 117.153 53.4505 116.97 54.3522 116.97V116.72ZM54.9568 116.748C54.761 116.729 54.5583 116.72 54.3522 116.72V116.97C54.5507 116.97 54.7453 116.979 54.9326 116.997L54.9568 116.748ZM58.048 117.703C57.0903 117.292 56.081 116.857 54.9568 116.748L54.9326 116.997C56.012 117.102 56.9863 117.519 57.9494 117.933L58.048 117.703ZM58.0472 117.703L58.0466 117.702L57.9508 117.933L57.9514 117.933L58.0472 117.703ZM60.5 118.446C59.7845 118.446 58.9589 118.094 58.0486 117.703L57.95 117.933C58.8436 118.317 59.7219 118.696 60.5 118.696V118.446ZM62.9514 117.703C62.0411 118.094 61.2156 118.446 60.5 118.446V118.696C61.2782 118.696 62.1565 118.317 63.0501 117.933L62.9514 117.703ZM66.0433 116.748C64.9181 116.857 63.9086 117.292 62.9514 117.703L63.0501 117.933C64.0126 117.519 64.9871 117.102 66.0675 116.997L66.0433 116.748ZM66.6479 116.72C66.4418 116.72 66.2391 116.729 66.0433 116.748L66.0674 116.997C66.2547 116.979 66.4494 116.97 66.6479 116.97V116.72ZM69.296 117.086C68.4559 116.908 67.5736 116.72 66.6479 116.72V116.97C67.5432 116.97 68.4001 117.151 69.244 117.331L69.296 117.086ZM69.3118 117.09L69.296 117.086L69.244 117.331L69.2598 117.334L69.3118 117.09ZM69.3142 117.09L69.312 117.09L69.2596 117.334L69.2619 117.335L69.3142 117.09ZM71.297 117.389C70.7139 117.389 70.0433 117.246 69.3142 117.09L69.2619 117.335C69.9834 117.489 70.682 117.639 71.297 117.639V117.389ZM71.8088 117.343C71.6551 117.373 71.4883 117.389 71.297 117.389V117.639C71.5016 117.639 71.685 117.622 71.8572 117.588L71.8088 117.343ZM74.054 116.145C73.241 116.702 72.5037 117.205 71.8087 117.343L71.8573 117.588C72.6138 117.438 73.3977 116.898 74.1954 116.351L74.054 116.145ZM74.0605 116.14L74.0604 116.14L74.189 116.355L74.1892 116.355L74.0605 116.14ZM74.06 116.14L74.0541 116.145L74.1956 116.351L74.2015 116.347L74.06 116.14ZM76.9119 114.597C75.8269 114.925 74.9195 115.55 74.0599 116.141L74.2016 116.347C75.0658 115.752 75.9423 115.152 76.9843 114.837L76.9119 114.597ZM79.5396 114.288C78.7519 114.288 77.8152 114.324 76.9118 114.597L76.9843 114.837C77.8506 114.574 78.7564 114.538 79.5396 114.538V114.288ZM80.1716 114.293C79.9613 114.29 79.7505 114.288 79.5396 114.288V114.538C79.7489 114.538 79.9584 114.54 80.1682 114.543L80.1716 114.293ZM80.2909 114.295L80.1714 114.293L80.1685 114.543L80.2881 114.545L80.2909 114.295ZM80.7624 114.298C80.6063 114.298 80.4491 114.296 80.291 114.295L80.2881 114.545C80.446 114.546 80.6046 114.548 80.7624 114.548V114.298ZM82.68 114.05C82.1586 114.266 81.4613 114.298 80.7624 114.298V114.548C81.4572 114.548 82.2022 114.518 82.7756 114.281L82.68 114.05ZM84.6436 112.433C83.9561 113.141 83.332 113.779 82.6799 114.05L82.7758 114.281C83.4859 113.986 84.1483 113.302 84.8229 112.607L84.6436 112.433ZM84.645 112.431L84.6449 112.432L84.8217 112.608L84.8218 112.608L84.645 112.431ZM87.1436 110.355C86.1411 110.892 85.3729 111.683 84.6438 112.433L84.823 112.607C85.5561 111.853 86.2987 111.091 87.2616 110.575L87.1436 110.355ZM90.2673 109.421C89.2378 109.613 88.1511 109.815 87.1435 110.355L87.2616 110.575C88.2297 110.056 89.2781 109.86 90.3131 109.667L90.2673 109.421ZM90.2757 109.42L90.2673 109.421L90.3131 109.667L90.3216 109.665L90.2757 109.42ZM90.2826 109.418L90.2756 109.42L90.3217 109.665L90.3286 109.664L90.2826 109.418ZM92.6948 108.687C92.409 108.878 92.0476 109.017 91.6334 109.13C91.2194 109.243 90.761 109.329 90.2827 109.418L90.3285 109.664C90.8046 109.575 91.2736 109.488 91.6994 109.371C92.125 109.255 92.5158 109.107 92.8339 108.895L92.6948 108.687ZM94.2991 106.724C94.0334 107.134 93.7785 107.527 93.5147 107.869C93.2508 108.21 92.983 108.494 92.6948 108.687L92.8339 108.895C93.1544 108.68 93.4414 108.373 93.7126 108.021C93.9839 107.67 94.2445 107.268 94.5089 106.86L94.2991 106.724ZM94.3001 106.722L94.2996 106.723L94.5084 106.861L94.509 106.86L94.3001 106.722ZM96.3521 104.191C95.4707 104.915 94.8699 105.843 94.2997 106.723L94.5095 106.859C95.0827 105.975 95.6641 105.08 96.5108 104.384L96.3521 104.191ZM99.2397 102.666C98.2645 103.055 97.2357 103.465 96.3521 104.191L96.5108 104.384C97.3597 103.686 98.352 103.289 99.3322 102.898L99.2397 102.666ZM99.2458 102.664L99.2395 102.666L99.3324 102.898L99.3387 102.896L99.2458 102.664ZM99.2528 102.661L99.2527 102.661L99.3318 102.898L99.3318 102.898L99.2528 102.661ZM101.473 101.474C101.229 101.719 100.9 101.926 100.516 102.118C100.131 102.309 99.6979 102.483 99.2459 102.664L99.3387 102.896C99.7885 102.716 100.232 102.539 100.627 102.341C101.023 102.144 101.378 101.923 101.65 101.651L101.473 101.474ZM102.663 99.2449C102.482 99.6977 102.309 100.132 102.117 100.517C101.924 100.902 101.717 101.23 101.473 101.475L101.65 101.651C101.922 101.38 102.143 101.024 102.34 100.628C102.538 100.232 102.715 99.7882 102.895 99.3377L102.663 99.2449ZM102.665 99.2408L102.663 99.2448L102.895 99.3378L102.897 99.3339L102.665 99.2408ZM104.19 96.3542C103.464 97.2377 103.054 98.2666 102.665 99.241L102.897 99.3337C103.288 98.3541 103.686 97.3618 104.383 96.5129L104.19 96.3542ZM106.722 94.3018C105.843 94.8713 104.914 95.4721 104.19 96.3543L104.383 96.5129C105.079 95.6655 105.974 95.0842 106.858 94.5116L106.722 94.3018ZM106.725 94.3002L106.722 94.3018L106.858 94.5116L106.861 94.51L106.725 94.3002ZM108.685 92.6955C108.492 92.9839 108.209 93.2517 107.868 93.5156C107.527 93.7795 107.134 94.0343 106.725 94.3002L106.861 94.5099C107.268 94.2454 107.67 93.9847 108.021 93.7134C108.372 93.4422 108.679 93.1551 108.893 92.8345L108.685 92.6955ZM109.418 90.2779C109.329 90.7572 109.243 91.2166 109.13 91.6315C109.016 92.0467 108.877 92.4089 108.685 92.6955L108.893 92.8346C109.107 92.5157 109.254 92.124 109.371 91.6974C109.488 91.2706 109.575 90.8006 109.664 90.3236L109.418 90.2779ZM109.42 90.2701L109.418 90.2777L109.664 90.3238L109.665 90.3163L109.42 90.2701ZM110.354 87.1457C109.815 88.1528 109.612 89.2397 109.42 90.2702L109.665 90.3162C109.859 89.2801 110.056 88.2314 110.574 87.2636L110.354 87.1457ZM112.432 84.6451C111.682 85.3742 110.891 86.1432 110.354 87.1456L110.574 87.2637C111.09 86.3007 111.853 85.5574 112.606 84.8243L112.432 84.6451ZM114.049 82.6806C113.778 83.3327 113.14 83.9575 112.432 84.645L112.606 84.8243C113.301 84.1496 113.985 83.4865 114.28 82.7765L114.049 82.6806ZM114.293 80.1724C114.299 80.6592 114.305 81.1258 114.275 81.5541C114.246 81.9825 114.181 82.3638 114.049 82.6806L114.28 82.7765C114.426 82.4236 114.494 82.0116 114.525 81.5714C114.555 81.1309 114.549 80.6535 114.543 80.1691L114.293 80.1724ZM114.293 80.1706V80.1707H114.543V80.1706H114.293ZM114.293 80.1695L114.293 80.1719L114.543 80.1694L114.543 80.1671L114.293 80.1695ZM114.597 76.9125C114.264 78.0109 114.279 79.1193 114.293 80.1699L114.543 80.1667C114.529 79.1104 114.516 78.0406 114.836 76.985L114.597 76.9125ZM116.14 74.0614C115.55 74.921 114.926 75.8276 114.597 76.9124L114.836 76.9851C115.152 75.943 115.753 75.0672 116.346 74.2029L116.14 74.0614ZM116.143 74.0569L116.14 74.0615L116.346 74.2028L116.349 74.1982L116.143 74.0569ZM117.343 71.8093C117.205 72.5048 116.702 73.2426 116.143 74.0568L116.349 74.1983C116.897 73.3993 117.438 72.6149 117.588 71.858L117.343 71.8093ZM117.091 69.3155C117.192 69.7895 117.289 70.244 117.343 70.6677C117.398 71.0916 117.409 71.476 117.343 71.8095L117.588 71.8579C117.662 71.4862 117.647 71.0712 117.591 70.6358C117.535 70.2001 117.436 69.7351 117.336 69.2635L117.091 69.3155ZM117.09 69.3119L117.091 69.3156L117.336 69.2634L117.335 69.2597L117.09 69.3119ZM116.748 66.044C116.637 67.1926 116.869 68.2804 117.09 69.312L117.335 69.2596C117.113 68.2228 116.89 67.1722 116.997 66.0681L116.748 66.044ZM117.703 62.9514C117.292 63.9086 116.857 64.9188 116.748 66.044L116.997 66.0681C117.102 64.9878 117.519 64.0125 117.933 63.0501L117.703 62.9514ZM117.706 62.9454L117.703 62.9515L117.933 63.05L117.936 63.0439L117.706 62.9454ZM118.446 60.5C118.446 61.2139 118.095 62.0373 117.706 62.9454L117.936 63.0439C118.318 62.1526 118.696 61.2765 118.696 60.5H118.446ZM117.706 58.0548C118.095 58.9628 118.446 59.7862 118.446 60.5H118.696C118.696 59.7236 118.318 58.8475 117.936 57.9563L117.706 58.0548ZM117.705 58.0518L117.705 58.052L117.937 57.9591L117.937 57.959L117.705 58.0518ZM117.703 58.0487L117.706 58.0548L117.936 57.956L117.933 57.9499L117.703 58.0487ZM116.748 54.9568C116.857 56.0812 117.292 57.0914 117.703 58.0486L117.933 57.9499C117.519 56.9874 117.102 56.0122 116.997 54.9325L116.748 54.9568ZM117.09 51.688C116.869 52.7196 116.637 53.8081 116.748 54.9567L116.997 54.9326C116.89 53.8285 117.113 52.7772 117.335 51.7404L117.09 51.688ZM117.092 51.6829L117.09 51.6881L117.335 51.7403L117.336 51.7351L117.092 51.6829ZM117.098 51.6625L117.098 51.6625L117.33 51.7554L117.33 51.7553L117.098 51.6625ZM117.343 49.1912C117.409 49.5246 117.398 49.9085 117.343 50.332C117.289 50.7552 117.192 51.2092 117.092 51.6829L117.336 51.7349C117.436 51.2636 117.535 50.7991 117.591 50.3638C117.647 49.9289 117.662 49.5143 117.588 49.1428L117.343 49.1912ZM116.145 46.9459C116.702 47.7589 117.205 48.4963 117.343 49.1914L117.588 49.1427C117.438 48.3862 116.898 47.6023 116.351 46.8045L116.145 46.9459ZM116.14 46.9399L116.144 46.9458L116.351 46.8046L116.347 46.7987L116.14 46.9399ZM114.597 44.0889C114.926 45.1731 115.55 46.0805 116.141 46.9401L116.347 46.7985C115.753 45.9343 115.152 45.0577 114.837 44.0164L114.597 44.0889ZM114.292 40.8378C114.28 41.8863 114.265 42.9929 114.597 44.0889L114.837 44.0164C114.517 42.9632 114.53 41.895 114.542 40.8409L114.292 40.8378ZM114.292 40.8392V40.8393H114.542V40.8392H114.292ZM114.293 40.8285L114.292 40.8377L114.542 40.8408L114.543 40.8317L114.293 40.8285ZM114.293 40.83V40.8301H114.543V40.83H114.293ZM114.05 38.32C114.181 38.6368 114.246 39.0181 114.275 39.4466C114.305 39.8749 114.299 40.3415 114.293 40.8283L114.543 40.8316C114.549 40.3472 114.555 39.8698 114.525 39.4294C114.494 38.9892 114.427 38.5772 114.281 38.2244L114.05 38.32ZM112.433 36.3564C113.141 37.0439 113.779 37.6687 114.05 38.3202L114.281 38.2242C113.986 37.5149 113.302 36.8518 112.607 36.1771L112.433 36.3564ZM112.435 36.3588L112.436 36.3589L112.604 36.1746L112.604 36.1745L112.435 36.3588ZM112.44 36.3626L112.44 36.3627L112.6 36.1706L112.6 36.1705L112.44 36.3626ZM110.354 33.8558C110.892 34.8589 111.683 35.6271 112.433 36.3562L112.607 36.177C111.853 35.4439 111.091 34.7013 110.575 33.7377L110.354 33.8558ZM109.42 30.7312C109.613 31.7617 109.815 32.8486 110.354 33.8557L110.575 33.7378C110.057 32.77 109.86 31.7213 109.666 30.6853L109.42 30.7312ZM109.419 30.7237L109.42 30.7313L109.666 30.6852L109.665 30.6776L109.419 30.7237ZM109.42 30.7299L109.42 30.7301L109.663 30.6712L109.663 30.671L109.42 30.7299ZM108.686 28.306C108.878 28.5925 109.017 28.9547 109.131 29.3698C109.244 29.7847 109.33 30.2441 109.419 30.7234L109.665 30.6776C109.576 30.2007 109.489 29.7307 109.372 29.3039C109.255 28.8774 109.108 28.4856 108.894 28.1668L108.686 28.306ZM106.724 26.701C107.134 26.9667 107.527 27.2215 107.869 27.4854C108.21 27.7494 108.493 28.0173 108.686 28.3059L108.894 28.167C108.68 27.8461 108.373 27.5589 108.021 27.2876C107.67 27.0162 107.268 26.7556 106.86 26.4912L106.724 26.701ZM106.723 26.7L106.723 26.7001L106.861 26.4921L106.861 26.492L106.723 26.7ZM106.724 26.7007L106.724 26.7013L106.859 26.4908L106.858 26.4902L106.724 26.7007ZM104.191 24.648C104.915 25.5293 105.843 26.1301 106.723 26.7003L106.859 26.4906C105.975 25.9173 105.08 25.336 104.384 24.4892L104.191 24.648ZM102.668 21.7662C103.057 22.7395 103.466 23.7654 104.191 24.6479L104.384 24.4893C103.688 23.6413 103.291 22.6519 102.9 21.6734L102.668 21.7662ZM102.665 21.7605L102.668 21.7662L102.9 21.6734L102.898 21.6677L102.665 21.7605ZM102.664 21.7575L102.665 21.7602L102.898 21.6679L102.897 21.6652L102.664 21.7575ZM102.664 21.7577L102.664 21.7578L102.897 21.6649L102.896 21.6648L102.664 21.7577ZM101.475 19.5269C101.719 19.7712 101.926 20.1001 102.118 20.4856C102.31 20.8709 102.484 21.305 102.664 21.7576L102.897 21.6649C102.717 21.2145 102.539 20.7703 102.342 20.374C102.145 19.978 101.923 19.6219 101.651 19.3501L101.475 19.5269ZM99.2471 18.3377C99.6992 18.5185 100.132 18.6919 100.517 18.8839C100.902 19.0759 101.23 19.2828 101.475 19.5269L101.651 19.35C101.38 19.0786 101.024 18.8575 100.629 18.6602C100.233 18.4628 99.7898 18.2855 99.34 18.1056L99.2471 18.3377ZM99.241 18.3353L99.2471 18.3377L99.34 18.1056L99.3338 18.1031L99.241 18.3353ZM96.3536 16.8107C97.2371 17.536 98.2659 17.9461 99.241 18.3353L99.3337 18.1031C98.3534 17.7118 97.3611 17.3143 96.5122 16.6174L96.3536 16.8107ZM94.3018 14.2788C94.8718 15.158 95.4725 16.0863 96.3535 16.8106L96.5123 16.6175C95.6659 15.9216 95.0847 15.0268 94.5116 14.1428L94.3018 14.2788ZM94.3015 14.2783L94.3022 14.2794L94.5112 14.1423L94.5105 14.1412L94.3015 14.2783ZM92.6962 12.3146C92.9846 12.5079 93.2524 12.7911 93.5165 13.1328C93.7804 13.4744 94.0353 13.8676 94.3011 14.2777L94.5109 14.1418C94.2464 13.7336 93.9857 13.3313 93.7143 12.98C93.443 12.6288 93.1559 12.3217 92.8354 12.1069L92.6962 12.3146ZM90.2772 11.5818C90.7565 11.671 91.2163 11.7567 91.6316 11.8702C92.0471 11.9837 92.4097 12.1228 92.6962 12.3146L92.8353 12.1069C92.5165 11.8934 92.1244 11.7456 91.6974 11.629C91.2703 11.5123 90.7999 11.4248 90.3229 11.336L90.2772 11.5818ZM87.145 10.6457C88.1553 11.1866 89.245 11.3893 90.2772 11.5818L90.323 11.336C89.2854 11.1425 88.2338 10.945 87.263 10.4253L87.145 10.6457ZM84.6453 8.56808C85.3744 9.31782 86.1426 10.1091 87.145 10.6457L87.263 10.4253C86.3001 9.90991 85.5576 9.14765 84.8245 8.39379L84.6453 8.56808ZM84.6477 8.57051L84.6478 8.57062L84.822 8.39125L84.8219 8.39113L84.6477 8.57051ZM84.6391 8.56126L84.6392 8.56134L84.8304 8.4003L84.8303 8.40022L84.6391 8.56126ZM82.6814 6.95098C83.004 7.08471 83.3233 7.31089 83.6499 7.59533C83.9763 7.87965 84.3037 8.21642 84.6451 8.56784L84.8244 8.39364C84.4847 8.04394 84.1498 7.69925 83.8141 7.40681C83.4785 7.11448 83.1356 6.86861 82.7771 6.72003L82.6814 6.95098ZM80.7639 6.7025C81.4628 6.7025 82.1593 6.7345 82.6814 6.95097L82.7771 6.72004C82.2029 6.48196 81.4585 6.4525 80.7639 6.4525V6.7025ZM80.1725 6.70749C80.3702 6.70463 80.5675 6.7025 80.7639 6.7025V6.4525C80.5657 6.4525 80.3671 6.45465 80.1688 6.45752L80.1725 6.70749ZM80.045 6.70885L80.172 6.7075L80.1693 6.45751L80.0423 6.45886L80.045 6.70885ZM79.5417 6.71251C79.7097 6.71251 79.8776 6.71067 80.045 6.70885L80.0423 6.45886C79.8746 6.46069 79.7081 6.46251 79.5417 6.46251V6.71251ZM76.9126 6.40339C77.8159 6.67702 78.7533 6.71251 79.5417 6.71251V6.46251C78.7578 6.46251 77.8513 6.42652 76.985 6.16413L76.9126 6.40339ZM74.0678 4.86508C74.9259 5.45372 75.8305 6.07544 76.9125 6.40339L76.985 6.16413C75.9459 5.84917 75.072 5.25082 74.2092 4.65892L74.0678 4.86508ZM74.0608 4.86026L74.0678 4.86509L74.2092 4.65891L74.2021 4.65407L74.0608 4.86026ZM74.0593 4.85928L74.0606 4.86014L74.2023 4.65419L74.2011 4.65332L74.0593 4.85928ZM71.8087 3.65693C72.5058 3.79512 73.2447 4.29981 74.0594 4.85934L74.201 4.65326C73.4015 4.10421 72.616 3.5621 71.8573 3.4117L71.8087 3.65693ZM71.297 3.61143C71.489 3.61143 71.6558 3.62663 71.8087 3.65693L71.8573 3.4117C71.6857 3.37769 71.5023 3.36143 71.297 3.36143V3.61143ZM69.3119 3.91028C70.0419 3.75436 70.714 3.61143 71.297 3.61143V3.36143C70.6821 3.36143 69.9819 3.51153 69.2597 3.66579L69.3119 3.91028ZM66.6479 4.28039C67.5801 4.28039 68.4675 4.09071 69.3119 3.91028L69.2597 3.66579C68.4117 3.847 67.5495 4.03039 66.6479 4.03039V4.28039ZM66.0433 4.25193C66.2391 4.27093 66.4418 4.28039 66.6479 4.28039V4.03039C66.4494 4.03039 66.2547 4.02127 66.0675 4.0031L66.0433 4.25193ZM62.9521 3.29709C63.9097 3.70824 64.919 4.14257 66.0433 4.25193L66.0675 4.0031C64.9881 3.8981 64.0137 3.48082 63.0507 3.06737L62.9521 3.29709ZM62.9518 3.29698L62.9524 3.29724L63.0503 3.06722L63.0497 3.06696L62.9518 3.29698ZM62.9454 3.29425L62.9515 3.29685L63.05 3.06709L63.0439 3.06448L62.9454 3.29425ZM6.66998 59.7871C7.05155 30.5812 30.8455 7.02268 60.1426 7.02268V6.77268C30.7085 6.77268 6.80335 30.4414 6.42 59.7838L6.66998 59.7871ZM6.54029 59.9104H6.54499V59.6604H6.54029V59.9104ZM6.66529 61.2148V59.7854H6.41529V61.2148H6.66529ZM6.54499 61.0898H6.54029V61.3398H6.54499V61.0898ZM60.1426 113.977C30.8456 113.977 7.0517 90.4189 6.66998 61.2132L6.42 61.2165C6.80351 90.5588 30.7086 114.227 60.1426 114.227V113.977ZM113.62 60.5C113.62 90.0345 89.6778 113.977 60.1426 113.977V114.227C89.8159 114.227 113.87 90.1725 113.87 60.5H113.62ZM60.1426 7.02268C89.6778 7.02268 113.62 30.9655 113.62 60.5H113.87C113.87 30.8275 89.8159 6.77268 60.1426 6.77268V7.02268ZM7.97457 61.3398H11.8598V61.0898H7.97457V61.3398ZM60.1427 112.548C31.6818 112.548 8.48251 89.5848 8.09955 61.2132L7.84958 61.2165C8.23437 89.7247 31.5448 112.798 60.1427 112.798V112.548ZM112.186 61.2132C111.803 89.5848 88.6035 112.548 60.1427 112.548V112.798C88.7405 112.798 112.051 89.7247 112.436 61.2165L112.186 61.2132ZM108.42 61.3398H112.311V61.0898H108.42V61.3398ZM108.295 61.213C107.914 87.4812 86.5016 108.658 60.1427 108.658V108.908C86.6384 108.908 108.162 87.6213 108.545 61.2167L108.295 61.213ZM60.1427 108.658C33.5456 108.658 11.9848 87.0969 11.9848 60.4999H11.7348C11.7348 87.235 33.4075 108.908 60.1427 108.908V108.658ZM11.9848 60.4999C11.9848 33.9035 33.5456 12.3427 60.1427 12.3427V12.0927C33.4075 12.0927 11.7348 33.7655 11.7348 60.4999H11.9848ZM60.1427 12.3427C86.5018 12.3427 107.914 33.5195 108.295 59.7873L108.545 59.7836C108.162 33.3794 86.6386 12.0927 60.1427 12.0927V12.3427ZM112.311 59.6604H108.42V59.9104H112.311V59.6604ZM60.1427 8.45208C88.6036 8.45208 111.803 31.4154 112.186 59.7871L112.436 59.7838C112.051 31.2755 88.7406 8.20208 60.1427 8.20208V8.45208ZM8.09955 59.7871C8.48235 31.4154 31.6817 8.45208 60.1427 8.45208V8.20208C31.5447 8.20208 8.23421 31.2755 7.84957 59.7838L8.09955 59.7871ZM11.8598 59.6604H7.97456V59.9104H11.8598V59.6604ZM11.9848 61.2148V59.7854H11.7348V61.2148H11.9848ZM107.121 60.4999C107.121 34.5959 86.0466 13.5221 60.1427 13.5221V13.7721C85.9085 13.7721 106.871 34.734 106.871 60.4999H107.121ZM60.1427 107.478C86.0466 107.478 107.121 86.4038 107.121 60.4999H106.871C106.871 86.2657 85.9085 107.228 60.1427 107.228V107.478ZM13.1643 60.4999C13.1643 86.4038 34.2388 107.478 60.1427 107.478V107.228C34.3768 107.228 13.4143 86.2657 13.4143 60.4999H13.1643ZM60.1427 13.5221C34.2388 13.5221 13.1643 34.5959 13.1643 60.4999H13.4143C13.4143 34.734 34.3768 13.7721 60.1427 13.7721V13.5221Z" fill="#CCC9B8"/>
</svg>
