<svg xmlns="http://www.w3.org/2000/svg" viewBox="0 0 15 17"><g fill="#c41230"><path d="M11.332 0L11 .07 14.668 17l.332-.07L11.332 0z"/><path d="M11.888 7.193l-.126-.569-.112-.51-.121-.548-.113-.511-.107-.49-.771-3.5a9.493 9.493 0 0 0-5.167 1.074C3.653 2.856 1.941 3.594 0 3.3l.112.51.109.493.113.511.131.6.09.41.1.478.071.319c.049.224.1.449.148.673l.112.507.121.549.112.51.238 1.08C5.267 10.516 8.2 7.119 12 7.7l-.112-.507zm-4.814.438l.207-.778.263-.118-.483-2.716c-.262 1.006-.519 2.028-.778 3.05A279.862 279.862 0 0 1 4.62 5.153l.48 2.718c.088-.038.176-.078.264-.118.143.162.287.324.431.484A13.827 13.827 0 0 1 3.871 9q.108-.363.214-.732c.092-.031.183-.063.274-.1l-.641-3.6c-.094.034-.188.068-.281.1C3.291 4.5 3.146 4.32 3 4.143a12.01 12.01 0 0 0 1.344-.5c.559.65 1.114 1.285 1.67 1.92.259-1.025.519-2.051.783-3.059A11.37 11.37 0 0 1 8.142 2c-.071.241-.142.486-.212.732a8.01 8.01 0 0 0-.284.1l.642 3.6.274-.1.438.529a14.293 14.293 0 0 0-1.926.77z" fill-rule="evenodd"/></g></svg>
