<svg xmlns="http://www.w3.org/2000/svg" viewBox="0 0 22 69.474"><path d="M17.785 69.473l-4.469-.073.09-6.3 4.454.072c1.847.03 2.878.635 3.3 1.642a3.852 3.852 0 0 1 .258 1.511 4.033 4.033 0 0 1-.3 1.536c-.462 1.039-1.526 1.639-3.333 1.612zm2.548-3.112a2.676 2.676 0 0 0-.184-1.1c-.334-.723-1.1-1.123-2.431-1.144l-3.27-.053-.063 4.4 3.173.051c1.415.022 2.2-.352 2.551-1.055a2.582 2.582 0 0 0 .224-1.099zM7.152 53.794a1.659 1.659 0 0 1-1.28.738l2.233 2.784-1.231-.016-2.1-2.646-3.691-.06-.04 2.606L0 57.185l.09-6.238 4.97.081a2.511 2.511 0 0 1 2.05.768 1.612 1.612 0 0 1 .283 1.019 1.88 1.88 0 0 1-.241.979zm-.92-1.381a1.249 1.249 0 0 0-1.061-.425l-4.053-.065-.024 1.708 4.084.067c.588.009.9-.113 1.064-.358a.926.926 0 0 0 .124-.461.747.747 0 0 0-.134-.466zm14.811-13.752A2.618 2.618 0 0 1 22 40.815a2.7 2.7 0 0 1-.932 2.139 5.5 5.5 0 0 1-3.7 1.046 5.677 5.677 0 0 1-3.528-.975 2.631 2.631 0 0 1-1.1-2.217 2.593 2.593 0 0 1 .957-2.092 5.216 5.216 0 0 1 3.683-1.084 5.456 5.456 0 0 1 3.663 1.029zm-.787 3.586a1.913 1.913 0 0 0-.016-2.886 4.45 4.45 0 0 0-2.88-.762 4.45 4.45 0 0 0-2.847.77 1.808 1.808 0 0 0-.681 1.455 1.753 1.753 0 0 0 .827 1.541 4.5 4.5 0 0 0 2.709.684 4.23 4.23 0 0 0 2.888-.802zM2.151 25.319v1.687h5.158v1.036H2.151v2.642h-.993v-6.368h6.368v1zM14.1 17.947h-1.363l3.952-3.237L13 11.579h1.479l3.011 2.536 3.078-2.536h1.367l-3.789 3.106L22 17.947h-1.488l-3.165-2.674zM8.307 1.029a2.619 2.619 0 0 1 .956 2.155 2.7 2.7 0 0 1-.932 2.139 5.491 5.491 0 0 1-3.7 1.045A5.685 5.685 0 0 1 1.1 5.394 2.633 2.633 0 0 1 0 3.176a2.6 2.6 0 0 1 .956-2.092A5.22 5.22 0 0 1 4.64 0a5.461 5.461 0 0 1 3.667 1.029zm-.788 3.586a1.77 1.77 0 0 0 .65-1.423A1.783 1.783 0 0 0 7.5 1.729 4.455 4.455 0 0 0 4.623.967a4.456 4.456 0 0 0-2.847.77 1.81 1.81 0 0 0-.682 1.455 1.753 1.753 0 0 0 .828 1.541 4.492 4.492 0 0 0 2.709.684 4.23 4.23 0 0 0 2.888-.802z" fill="#c41230" fill-rule="evenodd"/></svg>
