<svg xmlns="http://www.w3.org/2000/svg" viewBox="0 0 21.512 30.5"><g fill="#ffffff"><path d="M14.7 10.744H6.816V6.2a1.2 1.2 0 0 1 1.193-1.189H13.5A1.194 1.194 0 0 1 14.7 6.2zm-6.88-1h5.88V6.2a.194.194 0 0 0-.193-.193H8.009a.193.193 0 0 0-.193.193zm13.692 9.438H0v-3.723h21.512zM1 18.182h19.512v-1.723H1z"/><path d="M12.021 5.489h-1V3.918c0-.291-.53-.291-.53 0v1.571h-1V3.918a1.265 1.265 0 0 1 2.53 0z"/><path d="M10.756 2.836a1.266 1.266 0 0 1-1.265-1.265V0h1v1.571c0 .291.53.291.53 0V0h1v1.571a1.266 1.266 0 0 1-1.265 1.265zM16.61 30.5H4.916l-3.6-12.318H19.7zm-10.944-1h10.165l2.589-10.318H2.649z"/><path d="M10.756 23.907a2.863 2.863 0 1 1 2.862-2.862 2.865 2.865 0 0 1-2.862 2.862zm0-4.725a1.863 1.863 0 1 0 1.862 1.863 1.865 1.865 0 0 0-1.862-1.863zM2.415 16.21l-.865-.502 3.453-5.964h11.525l3.017 5.99-.893.45-2.739-5.44H5.579L2.415 16.21zm7.841 8.75h1v2.355h-1zm-5.771-4.415h2.354v1H4.485zm10.187 0h2.354v1h-2.354zm-8.704 4.58l1.665-1.665.708.707-1.666 1.666zm7.203-.957l.708-.707 1.665 1.665-.707.707z"/></g></svg>
