<svg width="118" height="188" viewBox="0 0 118 188" fill="none" xmlns="http://www.w3.org/2000/svg">
<path fill-rule="evenodd" clip-rule="evenodd" d="M59 0C26.4161 0 0 26.4122 0 58.9913V129.009C0 161.588 26.4161 188 59 188C91.5861 188 118 161.588 118 129.009V58.9913C118 26.4122 91.5861 0 59 0ZM58.9999 1.66492C90.6157 1.66492 116.335 27.3801 116.335 58.9913V129.009C116.335 160.618 90.6157 186.335 58.9999 186.335C27.3862 186.335 1.66503 160.618 1.66503 129.009V58.9913C1.66503 27.3801 27.3862 1.66492 58.9999 1.66492ZM59 9.58303C31.4583 9.58303 9.13177 31.9084 9.13177 59.4461V128.553C9.13177 156.093 31.4583 178.417 59 178.417C86.544 178.417 108.87 156.093 108.87 128.553V59.4461C108.87 31.9084 86.544 9.58303 59 9.58303ZM58.9999 11.2479C85.5803 11.2479 107.205 32.8696 107.205 59.4461V128.553C107.205 155.13 85.5803 176.752 58.9999 176.752C32.4195 176.752 10.7968 155.13 10.7968 128.553V59.4461C10.7968 32.8696 32.4195 11.2479 58.9999 11.2479ZM4.82239 58.9618C4.82239 29.0443 29.0782 4.79207 59.0001 4.79207C88.9219 4.79207 113.178 29.0443 113.178 58.9618V94.0004V129.037C113.178 158.954 88.9219 183.209 59.0001 183.209C29.0782 183.209 4.82239 158.954 4.82239 129.037V94.0004V58.9618ZM111.512 58.9618C111.512 30.01 87.956 6.45698 59 6.45698C30.0439 6.45698 6.48741 30.01 6.48741 58.9618V94.0004V129.037C6.48741 157.989 30.0439 181.544 59 181.544C87.956 181.544 111.512 157.989 111.512 129.037V94.0004V58.9618Z" fill="#CCC9B8"/>
<path fill-rule="evenodd" clip-rule="evenodd" d="M44.5283 44.2353C44.5283 35.6852 51.506 28.7529 60.1121 28.7529C68.7205 28.7529 75.6981 35.6852 75.6981 44.2353C75.6981 52.7876 68.7205 59.7176 60.1121 59.7176C51.506 59.7176 44.5283 52.7876 44.5283 44.2353ZM74.0653 44.2353C74.0653 36.5936 67.8061 30.3751 60.1121 30.3751C52.4204 30.3751 46.1612 36.5936 46.1612 44.2353C46.1612 49.487 49.1157 54.0648 53.4595 56.4157V37.69C53.0591 37.427 52.7954 36.9757 52.7954 36.4623C52.7954 35.649 53.4572 34.9915 54.2758 34.9915C55.0922 34.9915 55.7563 35.649 55.7563 36.4623C55.7563 36.9592 55.5084 37.398 55.1293 37.6641V37.7237C55.5702 37.883 56.011 37.9515 56.4514 37.9515C57.8099 37.9515 59.1679 37.301 60.5258 36.6505C61.8838 36 63.2418 35.3495 64.6003 35.3495C65.5953 35.3495 66.588 35.6977 67.583 36.6516V47.9183C66.588 46.9667 65.5953 46.6163 64.6003 46.6163C63.2418 46.6163 61.8838 47.2673 60.5258 47.9183C59.1679 48.5694 57.8099 49.2204 56.4514 49.2204C56.011 49.2204 55.5702 49.1515 55.1293 48.9917V57.1819C56.6775 57.772 58.3576 58.0954 60.1121 58.0954C67.8061 58.0954 74.0653 51.8791 74.0653 44.2353ZM55.1293 39.4157V47.1787C55.6685 47.5416 56.1084 47.5982 56.4514 47.5982C57.4376 47.5982 58.5937 47.0445 59.8172 46.4584C61.3172 45.7381 62.8695 44.994 64.6003 44.994C65.0619 44.994 65.5125 45.0503 65.9501 45.1606V37.4086C65.3993 37.0301 64.9487 36.9717 64.6003 36.9717C63.6163 36.9717 62.4602 37.5254 61.2367 38.1116C59.7345 38.8318 58.1844 39.5737 56.4514 39.5737C55.9989 39.5737 55.5568 39.5217 55.1293 39.4157Z" fill="#CCC9B8"/>
</svg>
