<svg xmlns="http://www.w3.org/2000/svg" viewBox="0 0 840.121 160.497"><g data-name="Layer 2"><g data-name="Layer 1"><path d="M320.666 89.479h-25.111l.136.638c2.439 1.031 7.635 2.646 8.666 3.865 1.22 1.688 1.127 3.847 1.127 5.348v34.994c0 14.074-11.071 22.613-22.33 21.018-10.7-1.6-18.2-7.226-18.2-22.143V98.673c0-2.064 0-3.565 1.219-5.16 1.313-1.5 6.051-2.4 8.677-3.428l.031-.606h-27.123l.076.657c2.534.657 7.268 2.158 8.207 3.377 1.312 1.688.937 3.941.937 5.442v33.869c0 19.421 12.759 27.4 26.457 27.489 14.261.095 27.4-7.13 27.4-28.616v-29.365c0-1.126.281-7.036 1.314-8.35 1.125-1.5 5.994-2.617 8.528-3.836zm198.228 0h-23.055l.142.631c2.468.859 6.647 2.653 7.21 4.247.281.657-.281 3.378-1.031 5.442l-17.36 47.192-18.67-47.1c-.563-1.689-1.595-4.692-1.313-5.817.561-1.876 5.066-3.227 7.036-3.978l.127-.619h-24.552l.065.65c2.627 1.407 6.911 2.634 7.85 4.415.845 1.69 1.221 2.816 1.971 4.6 2.346 5.629 17.637 42.5 21.671 54.793a52.931 52.931 0 0 0 2.439 5.911h4.786c.845-2.816 1.22-4.5 2.065-7.225 1.687-5.443 17.074-49.257 19.516-54.135a25.593 25.593 0 0 1 2.342-4.5c.94-1.782 6.157-2.839 8.784-3.872zm50.794 56.31l-.875.061c-1.22 2.813-2.222 7.333-3.815 8.179-1.408.56-2.534.279-4.037.279h-15.385c-1.784 0-3 .281-4.692-.469-1.219-.563-1.6-3.375-1.6-4.878V125.88h13.793c2.063 0 3.376-.092 5.252.94s2.534 4.409 3.473 6.942l.845.078v-19.993l-.809.022-1.163 4.038a5.651 5.651 0 0 1-1.877 2.345c-1.594 1.22-3.752.937-6.191.937h-13.318V98.673c0-1.5-.093-3.189.563-3.846.939-.939 2.814-.751 4.691-.751h11.54a11.088 11.088 0 0 1 5.724 1.22c1.971 1.313 2.987 5.051 3.925 7.49h.673l.094-13.305h-44.925l.077.657c2.533.657 7.787 2.158 8.725 3.377 1.22 1.595.939 3.1.939 5.16v50.755c0 1.5.281 3.94-.939 5.444-.938 1.218-6.192 2.718-8.725 3.376l-.077.657h47.644zm73.124 13.868l-2.533-1.22c-4.973-2.533-5.817-3.284-8.914-6.285-4.971-4.69-7.88-8.258-12.667-13.6l-10.413-11.541 1.876-.374c5.724-1.5 16.512-5.349 16.512-17.921s-9.663-18.764-18.107-19.327c-5.628-.469-9.381.094-14.447.094h-15.051l.039.75c2.721 1.033 7.318 2.534 8.63 4.128a6.745 6.745 0 0 1 1.034 4.316v50.753c0 1.5.187 3.94-.939 5.444-.845 1.218-6.192 2.718-8.725 3.376l-.078.657h27.644l.016-.845c-2.626-1.032-7.411-1.689-8.724-3.285-1.221-1.5-1.221-3-1.221-4.972v-22.236h2.534l13.7 14.542c6.287 6.756 13.04 14.919 17.357 16.515 3.658 1.312 7.412 2.156 9.382 1.782zm-23.645-52.165c.752 9.477-7.692 15.95-18.013 16.043l-4.41.095V98.2c0-1.5-.093-2.908 1.127-3.753 1.032-.656 5.067-.938 7.975-.751 6.097.286 12.666 5.54 13.321 13.796zm61.969 33.119c-.282-11.446-10.414-15.855-20.546-21.016-4.035-1.97-12.478-6-12.572-13.323a13.357 13.357 0 0 1 14.261-13.228c5.722.282 9.287 1.22 11.07 5.723l3.167 8 .773.008-.189-16.546-1.877-.564a50.871 50.871 0 0 0-12.571-1.594c-11.164.094-21.955 7.413-21.391 19.608.656 11.449 7.693 14.167 17.356 19.516 7.693 4.221 15.106 6.661 15.669 15.2.468 8.071-7.6 13.511-15.857 12.572-4.878-.469-10.319-1.783-12.291-7.225l-2.527-6.175h-.662l.47 15.744 4.034 1.032a53.3 53.3 0 0 0 11.539 1.783c13.04-.095 22.329-6.945 22.142-19.516m93.773-33.979V89.462l-53.039.035-.063 16.759h.972c1.406-3.38 2.124-9.642 4.187-10.956a4.866 4.866 0 0 1 2.534-.656l14.542.187v54.6c0 1.5.376 3.753-.938 5.444-.938 1.218-6.193 2.718-8.724 3.376l-.078.657h27.641v-.672c-2.627-1.031-7.39-1.862-8.7-3.458-1.22-1.5-1.22-3-1.22-4.971v-54.98H764.4a11.9 11.9 0 0 1 4.5.469c2.345.844 4.29 8.337 5.321 11.339zM406.612 89.479l.011.619c-2.44.938-5.488 2.289-6.895 3.7S398.6 105.8 398.6 105.8v53.3h-4.5c-9.851-11.048-11.04-12.4-12.3-13.695-.715-.738-1.455-1.454-3.84-3.944-14.826-15.668-29.642-33.964-35.74-39.781v40.62c0 2.157-.47 9.383.938 12.288.844 1.5 4.671 3.04 7.158 3.638l.194.68h-21.364l.034-.751c2.628-1.126 5.911-2.252 6.851-3.941.844-1.594.844-7.788.844-11.821V96.779a5.88 5.88 0 0 0-1.2-3.422c-1.32-1.508-6.129-2.551-8.82-3.286l.035-.634 15.43.042a89.672 89.672 0 0 0 6.192 7.318c16.043 16.418 40.43 45.5 44.371 49.069v-39.875c-.094-4.69.281-10.413-.564-12.009-.938-1.782-4.5-2.627-7.036-3.753l-.035-.75zM443.92 159l.021-.729c-2.632-1.035-7.425-1.809-8.742-3.406-1.222-1.5-1.222-3.008-1.222-4.982V98.648c0-2.067 0-3.571 1.222-5.169 1.317-1.5 6.157-2.243 8.79-3.276l-.034-.7h-27.674l.025.7c2.538.657 7.8 2.053 8.741 3.276 1.315 1.692.939 3.948.939 5.452V149.5c0 1.5.376 3.759-.939 5.452-.939 1.222-6.2 2.726-8.741 3.385l-.088.656zm355.242-60.144l11.168 20.29 10.9-18.982c1.41-2.443 2.63-5.356 2.348-6.014-.563-1.5-2.587-2.3-7.207-3.912l-.03-.694h23.779l-.083.694c-2.726 1.034-6.214 1.468-9.127 4.1-1.411 1.222-2.257 3.288-3.571 5.45l-13.909 23.681-.094 26.5c0 2.067.094 3.475 1.315 4.979 1.222 1.6 6.622 2.381 9.255 3.414l.05.721h-28.665l.107-.721c2.536-.658 8.166-2.1 9.106-3.32 1.315-1.692.939-3.946.939-5.45v-23.4l-14.105-26.4c-1.339-2.163-2.107-4.229-3.516-5.451-2.913-2.632-6.4-3.066-9.129-4.1l-.082-.694h26.155l-.031.694c-4.622 1.608-6.644 2.409-7.208 3.912-.231.543.56 2.623 1.635 4.706M715.786 159l.019-.729c-2.633-1.035-7.427-1.809-8.742-3.406-1.221-1.5-1.221-3.008-1.221-4.982V98.648c0-2.067 0-3.571 1.221-5.169 1.315-1.5 6.156-2.243 8.788-3.276l-.033-.7h-27.674l.026.7c2.538.657 7.8 2.053 8.741 3.276 1.316 1.692.938 3.948.938 5.452V149.5c0 1.5.378 3.759-.938 5.452-.94 1.222-6.2 2.726-8.741 3.385l-.087.656zM385.632 71.454l.021-.736c-2.657-1.044-7.5-1.825-8.822-3.437-1.231-1.518-1.231-3.035-1.231-5.027V10.56c0-2.087 0-3.6 1.231-5.217 1.327-1.517 6.213-2.261 8.869-3.3l-.032-.7h-27.927l.026.7c2.561.664 7.872 2.072 8.821 3.305 1.327 1.708.947 3.984.947 5.5v51.026c0 1.517.38 3.795-.947 5.5-.949 1.233-6.26 2.749-8.821 3.414l-.089.664zm-124.225-60.53c-.1-1.514.275-3.791-1.053-5.5-.947-1.233-6.26-2.75-8.82-3.415l-.024-.663h9.937l5.5-.083c.663 1.992 1.9 5.692 3.034 8.252 6.45 13.279 24.851 44.39 27.793 48.279 4.837-7.777 15.173-27.6 24.755-45.149 2.276-4.174 3.368-6.852 5.359-11.31h15.793l.021.782c-2.655 1.043-7.494 1.707-8.821 3.224a6.74 6.74 0 0 0-1.223 4.533c.124 1.654.264 3.385.442 5.427 1.613 17.642 4.079 45.148 4.173 45.528a18.6 18.6 0 0 0 1.329 5.881c.852 1.708 5.244 2.962 7.9 4.006l.021.736h-25.491l.113-.736c2.468-.854 6.455-2.015 7.31-3.533 1.992-3.319 1.043-5.69.854-7.872l-3.889-42.965c-3.889 6.64-17.074 30.826-23.713 43.158-2.561 4.836-5.691 11.761-6.167 12.709-.663-1.329-3.319-6.07-5.31-9.77C277.288 36.644 267.8 21.657 266 18.528l-2.656 36.327c-.189 2.181-1.328 9.011.569 12.33.949 1.518 4.433 2.489 6.9 3.533l.049.736H249.8l.072-.759c2.656-1.137 6.261-2.181 7.21-3.889.852-1.611 1.137-6.923 1.327-11.382 1.613-13.183 2.182-31.585 2.751-39.173.127-1.949.2-3.681.244-5.327M482.065 13.2c-.1-1.514.276-3.791-1.052-5.5-.947-1.233-6.259-2.75-8.821-3.415l-.023-.663h9.937l5.5-.083c.663 1.992 1.894 5.692 3.034 8.252 6.45 13.279 24.85 44.39 27.791 48.279 4.837-7.777 15.177-27.6 24.756-45.149 2.276-4.174 3.368-6.852 5.36-11.31h15.792l.023.782c-2.657 1.043-7.494 1.707-8.822 3.224a6.733 6.733 0 0 0-1.221 4.533c.122 1.654.263 3.385.439 5.427 1.614 17.642 4.078 45.148 4.174 45.528a18.628 18.628 0 0 0 1.327 5.881c.855 1.708 5.246 2.962 7.9 4.006l.018.736h-25.488L542.8 73c2.468-.854 6.453-2.015 7.308-3.533 1.992-3.319 1.043-5.69.853-7.872l-3.889-42.967c-3.888 6.64-17.071 30.826-23.711 43.158-2.562 4.836-5.692 11.761-6.166 12.709-.663-1.329-3.319-6.07-5.311-9.77-13.944-25.8-23.428-40.786-25.23-43.915L484 57.132c-.19 2.181-1.328 9.011.57 12.33.948 1.518 4.431 2.489 6.9 3.533l.052.736h-21.059l.07-.759c2.657-1.137 6.261-2.181 7.21-3.889.853-1.611 1.137-6.923 1.328-11.382 1.612-13.183 2.181-31.585 2.75-39.173.127-1.949.2-3.681.244-5.327m119.391 58.253l.019-.736c-2.656-1.044-7.492-1.825-8.821-3.437-1.233-1.518-1.233-3.035-1.233-5.027V10.56c0-2.087 0-3.6 1.233-5.217 1.329-1.517 6.213-2.261 8.868-3.3l-.033-.7h-27.925l.026.7c2.559.664 7.872 2.072 8.819 3.305 1.329 1.708.95 3.984.95 5.5v51.026c0 1.517.379 3.795-.95 5.5-.947 1.233-6.26 2.749-8.819 3.414l-.091.664zM433.548 38.351h-19.254l9.675-24.851zm27.271 33.1l-.014-.736c-2.752-1.233-6.864-2.489-7.813-4.29a41.583 41.583 0 0 1-2.181-4.648c-2.561-5.6-16.694-43.063-20.678-55.488-.569-1.9-.852-3.13-1.421-5.027h-6.356c-.569 2.466-.949 3.983-1.707 6.45-1.708 5.406-12.52 34.24-21.343 54.255a34.238 34.238 0 0 1-1.989 4.647c-.949 1.8-5.311 3.035-7.969 4.078l.022.708 21.63.051-.059-.625c-2.467-1.043-6.037-2.031-6.7-3.644-.189-.663.665-4.172 1.423-6.164l6.64-17.738h23.429l6.355 17.738c.662 1.612 1.706 4.648 1.422 5.691-.57 1.991-4.679 3.152-6.669 4.006l-.089.736z" fill="#fff" fill-rule="evenodd"/><path d="M216.385 160.4H0l28.135-47.218h1.831V46.221h-2.431L0 0h76.821L107.9 52.176 138.719 0h77.136l-27.749 46.318h-2.625v66.868h2.119z" fill="#fff"/><path d="M7.986 4.912L30.6 42.339h4.388V118h-4.1L8.141 155.468h97.873L83.269 118h-3.93V93.581c9.936 16.837 28.819 48.793 28.819 48.793l8.985-15.094s9.957-16.852 19.886-33.68V118h-3.919l-22.736 37.49h97.874L185.514 118h-4.124V42.346h4.4L208.4 4.919h-66.737l-33.472 56.527L74.722 4.912z" fill="#231f20" fill-rule="evenodd"/><path fill="#e11d37" fill-rule="evenodd" d="M171.057 128.35V32.061h8.874l10.165-16.816h-42.518L108.193 81.76 68.81 15.229H26.289l10.158 16.826h8.911v96.265h-8.646l-10.225 16.842h61.166L77.419 128.32h-8.434V55.762l39.175 66.315.033-.033.011.044 39.194-66.316v72.578h-8.435l-10.235 16.824h61.158l-10.203-16.824h-8.626z"/></g></g></svg>