<svg xmlns="http://www.w3.org/2000/svg">
  <symbol viewBox="0 0 65 65" id="icon">
    <path d="M37.7 19.8c-2.9.9-4.7 3.6-4.6 6.6l.1 1.1-1.2-.1c-4.2-.5-8.1-2.4-11.2-5.3l-1.5-1.5-.4 1.1c-.9 2.4-.3 5 1.5 6.8.9 1 .7 1.1-.9.5-.3-.2-.7-.2-1.1-.2.1 1.1.4 2.1.9 3.1.8 1.3 1.9 2.3 3.2 2.9l1.1.5h-1.4c-1.3 0-1.4 0-1.2.5.5 1.5 2.3 3.1 4.4 3.8l1.5.5-1.3.7c-1.9 1.1-4.1 1.6-6.3 1.7-.6 0-1.3 0-1.9.2 0 .2 2.9 1.5 4.5 2 5.2 1.5 10.7.9 15.4-1.7 3.4-2.1 6.2-5.2 7.8-8.9.9-2.2 1.4-4.5 1.6-6.9 0-1.1.1-1.2 1.4-2.5.6-.5 1.1-1.1 1.7-1.8.2-.4.2-.4-1 0-2 .7-2.3.6-1.3-.4.7-.7 1.2-1.5 1.6-2.5 0-.1-.4 0-.8.2-.7.3-1.4.6-2.1.8l-1.2.5-1.2-.8c-.6-.4-1.3-.7-2-1-1.3-.3-2.7-.3-4.1.1"/>
  </symbol>
</svg>
