<svg xmlns="http://www.w3.org/2000/svg">
  <symbol viewBox="0 0 65 65" id="icon">
    <path d="M52.212,51.29h-8.086V37.51c0-3.778-1.431-5.889-4.425-5.889 c-3.251,0-4.952,2.197-4.952,5.889v13.78h-7.793V25.032h7.793v3.542c1.694-2.738,4.702-4.385,7.922-4.337 c5.57,0,9.553,3.399,9.553,10.429L52.212,51.29z"/>
    <path d="M17.661,21.599c-2.675,0.022-4.863-2.128-4.885-4.804 c-0.022-2.675,2.128-4.863,4.804-4.885c2.675-0.022,4.863,2.128,4.885,4.804c0,0.013,0,0.027,0,0.04 C22.476,19.419,20.325,21.588,17.661,21.599z"/>
    <rect x="13.637" y="25.039" width="8.124" height="26.25"/>
  </symbol>
</svg>
