<svg xmlns="http://www.w3.org/2000/svg">
  <symbol viewBox="0 0 65 65" id="icon">
    <path d="M40.1 22.9c0 1.2 1 2.1 2.1 2.1h.3c1.1-.1 1.9-1 1.8-2.1v-.3c-.1-1.2-1.1-2.1-2.3-2s-2 1.1-1.9 2.3zm-7.4.6c-5 0-9.1 4.1-9.1 9.1s4.1 9.1 9.1 9.1 9.1-4.1 9.1-9.1-4.1-9.1-9.1-9.1zm-.1 15.1c-3.4 0-6.1-2.7-6.1-6.1s2.7-6.1 6.1-6.1c3.4 0 6.1 2.7 6.1 6.1s-2.7 6.1-6.1 6.1z"/>
    <path d="M24.3 14.4c-.1 0-.1 0 0 0-5.4 0-9.8 4.4-9.8 9.8V41c0 5.4 4.4 9.7 9.8 9.7h16.8c5.4 0 9.7-4.4 9.7-9.8V24.1c0-5.4-4.4-9.7-9.8-9.7H24.3zm23.4 9.8v16.7c0 3.7-3 6.7-6.7 6.7H24.2c-3.7 0-6.7-3-6.7-6.7V24.2c0-3.7 3-6.7 6.7-6.7h17.2c3.6.1 6.4 3.1 6.3 6.7z"/>
  </symbol>
</svg>
