<?xml version="1.0" standalone="no"?>
<!DOCTYPE svg PUBLIC "-//W3C//DTD SVG 20010904//EN"
 "http://www.w3.org/TR/2001/REC-SVG-20010904/DTD/svg10.dtd">
<svg version="1.0" xmlns="http://www.w3.org/2000/svg"
 width="700.000000pt" height="700.000000pt" viewBox="0 0 700.000000 700.000000"
 preserveAspectRatio="xMidYMid meet">
<metadata>
Created by potrace 1.11, written by Peter Selinger 2001-2013
</metadata>
<g transform="translate(0.000000,700.000000) scale(0.100000,-0.100000)"
fill="#000000" stroke="none">
<path d="M423 5982 l-251 -2 255 -428 c140 -235 260 -436 266 -447 7 -11 24
-39 40 -63 15 -24 27 -45 27 -47 0 -3 19 -35 42 -72 23 -38 46 -77 52 -88 6
-11 44 -75 85 -142 l74 -123 38 0 39 0 -2 -1042 -3 -1043 -29 -2 c-15 -1 -29
-3 -31 -5 -1 -2 -81 -136 -177 -298 -258 -436 -649 -1092 -665 -1116 l-14 -21
3326 -1 c2998 0 3326 2 3320 16 -3 8 -25 47 -50 86 -24 39 -88 144 -142 233
-54 89 -152 250 -218 358 -66 108 -124 204 -130 213 -57 99 -311 510 -321 522
-8 8 -26 14 -42 15 l-27 0 -3 1041 -2 1041 40 0 c23 0 45 4 49 9 4 5 101 167
216 359 114 193 215 361 223 375 50 78 400 665 398 667 -4 4 -2358 5 -2360 1
-3 -4 -196 -330 -222 -375 -11 -18 -98 -165 -194 -328 -96 -162 -222 -375
-280 -474 -218 -370 -255 -431 -260 -431 -3 0 -14 15 -24 33 -47 80 -493 828
-527 884 -22 34 -39 64 -39 66 0 3 -104 177 -141 237 -9 14 -65 107 -124 208
l-108 182 -321 0 c-176 0 -593 2 -926 3 -333 1 -718 1 -857 -1z"/>
</g>
</svg>
